<svg width="741" height="487" viewBox="0 0 741 487" fill="none" xmlns="http://www.w3.org/2000/svg">
<path d="M454.506 334.177L458.348 341.813L466.956 343.074L460.767 349.029L462.189 357.436L454.506 353.442L446.895 357.436L448.317 349.029L442.128 343.074L450.665 341.813L454.506 334.177Z" fill="#332F55"/>
<path d="M0 486.48H740.98V0H0V486.48Z" fill="#30304D"/>
<path d="M665.857 181.517L666.853 183.409L668.703 184.39L666.853 185.371L665.857 187.192L664.862 185.371L662.941 184.39L664.862 183.409L665.857 181.517Z" fill="#B8BFD1"/>
<path d="M58.6872 311.266L59.612 312.877L61.2482 313.718L59.612 314.629L58.6872 316.24L57.8336 314.629L56.1974 313.718L57.8336 312.877L58.6872 311.266Z" fill="#B8BFD1"/>
<path d="M25.1112 168.206L26.036 169.818L27.601 170.728L26.036 171.569L25.1112 173.181L24.1864 171.569L22.6213 170.728L24.1864 169.818L25.1112 168.206Z" fill="#B8BFD1"/>
<path d="M26.1072 38.8126L26.9609 40.4239L28.597 41.3347L26.9609 42.1754L26.1072 43.7867L25.1824 42.1754L23.5462 41.3347L25.1824 40.4239L26.1072 38.8126Z" fill="#B8BFD1"/>
<path d="M319.412 231.118L320.55 233.85L323.538 234.551L321.119 236.443L321.404 239.385L318.772 237.774L315.855 238.895L316.709 236.092L314.646 233.85L317.776 233.64L319.412 231.118Z" fill="#F9F185"/>
<path d="M587.393 228.736L588.958 231.539L591.803 233.08L588.958 234.621L587.393 237.424L585.828 234.621L582.982 233.08L585.828 231.539L587.393 228.736Z" fill="#B8BFD1"/>
<path d="M569.821 40.912L571.386 43.7143L574.232 45.2556L571.386 46.7969L569.821 49.5992L568.256 46.7969L565.41 45.2556L568.256 43.7143L569.821 40.912Z" fill="#B8BFD1"/>
<path d="M640.959 279.321L642.524 282.123L645.37 283.664L642.524 285.206L640.959 288.008L639.394 285.206L636.548 283.664L639.394 282.123L640.959 279.321Z" fill="#B8BFD1"/>
<path d="M388.985 438.98L390.55 441.782L393.396 443.253L390.55 444.794L388.985 447.597L387.491 444.794L384.646 443.253L387.491 441.782L388.985 438.98Z" fill="#B8BFD1"/>
<path d="M421.427 334.664L422.352 336.345L424.059 337.256L422.352 338.167L421.427 339.848L420.502 338.167L418.795 337.256L420.502 336.345L421.427 334.664Z" fill="#B8BFD1"/>
<path d="M309.453 355.894L310.378 357.575L312.086 358.556L310.378 359.467L309.453 361.148L308.529 359.467L306.821 358.556L308.529 357.575L309.453 355.894Z" fill="#B8BFD1"/>
<path d="M212.134 421.538L213.059 423.219L214.766 424.13L213.059 425.041L212.134 426.722L211.209 425.041L209.502 424.13L211.209 423.219L212.134 421.538Z" fill="#B8BFD1"/>
<path d="M567.189 168.279L568.114 169.89L569.822 170.871L568.114 171.782L567.189 173.463L566.194 171.782L564.557 170.871L566.194 169.89L567.189 168.279Z" fill="#B8BFD1"/>
<path d="M494.697 155.109L495.622 156.721L497.329 157.701L495.622 158.612L494.697 160.294L493.772 158.612L492.065 157.701L493.772 156.721L494.697 155.109Z" fill="#B8BFD1"/>
<path d="M166.322 141.585L167.247 143.266L168.954 144.177L167.247 145.087L166.322 146.769L165.398 145.087L163.69 144.177L165.398 143.266L166.322 141.585Z" fill="#B8BFD1"/>
<path d="M653.409 54.9243L654.334 56.6057L656.041 57.5865L654.334 58.4973L653.409 60.1786L652.484 58.4973L650.777 57.5865L652.484 56.6057L653.409 54.9243Z" fill="#B8BFD1"/>
<path d="M711.671 128.906L712.596 130.588L714.374 131.499L712.596 132.409L711.671 134.091L710.746 132.409L709.039 131.499L710.746 130.588L711.671 128.906Z" fill="#B8BFD1"/>
<path d="M719.638 345.876L720.563 347.557L722.27 348.468L720.563 349.378L719.638 351.06L718.642 349.378L716.935 348.468L718.642 347.557L719.638 345.876Z" fill="#B8BFD1"/>
<path d="M567.474 348.817L568.399 350.499L570.106 351.409L568.399 352.32L567.474 354.002L566.549 352.32L564.842 351.409L566.549 350.499L567.474 348.817Z" fill="#B8BFD1"/>
<path d="M659.314 403.323L660.239 405.004L661.946 405.915L660.239 406.825L659.314 408.507L658.389 406.825L656.682 405.915L658.389 405.004L659.314 403.323Z" fill="#B8BFD1"/>
<path d="M120.862 15.0641L121.787 16.7455L123.495 17.6562L121.787 18.567L120.862 20.2483L119.938 18.567L118.23 17.6562L119.938 16.7455L120.862 15.0641Z" fill="#B8BFD1"/>
<path d="M553.673 76.7144L554.598 78.3958L556.305 79.3065L554.598 80.2173L553.673 81.8987L552.748 80.2173L551.041 79.3065L552.748 78.3958L553.673 76.7144Z" fill="#B8BFD1"/>
<path d="M242.513 195.461L243.366 197.073L245.002 197.983L243.366 198.824L242.513 200.435L241.588 198.824L239.952 197.983L241.588 197.073L242.513 195.461Z" fill="#B8BFD1"/>
<path d="M101.16 221.732L102.085 223.344L103.721 224.255L102.085 225.095L101.16 226.707L100.306 225.095L98.67 224.255L100.306 223.344L101.16 221.732Z" fill="#B8BFD1"/>
<path d="M354.128 240.226L355.053 241.837L356.618 242.748L355.053 243.589L354.128 245.2L353.204 243.589L351.639 242.748L353.204 241.837L354.128 240.226Z" fill="#B8BFD1"/>
<path d="M413.387 104.038L414.312 105.649L415.948 106.49L414.312 107.4L413.387 109.012L412.533 107.4L410.897 106.49L412.533 105.649L413.387 104.038Z" fill="#B8BFD1"/>
<path d="M357.4 421.394C355.053 418.662 355.622 416.35 355.906 413.197C356.049 411.796 356.547 410.465 357.187 409.204C359.179 405.351 362.38 401.988 366.648 399.886C370.917 397.785 376.181 397.154 381.161 398.415C383.722 399.046 386.14 400.237 388.346 401.708C391.831 404.02 394.748 407.242 395.246 410.885C395.744 414.528 393.254 418.382 389.128 418.942C385.998 419.362 382.726 417.891 379.596 418.241C374.616 418.802 371.699 423.846 366.648 424.266C366.648 424.266 360.602 425.177 357.471 421.534L357.4 421.394Z" fill="#332F55"/>
<path d="M372.409 317.15L373.405 318.971L375.255 319.952L373.405 321.003L372.409 322.824L371.413 321.003L369.493 319.952L371.413 318.971L372.409 317.15Z" fill="#B8BFD1"/>
<path d="M541.366 313.857L542.362 315.679L544.212 316.73L542.362 317.711L541.366 319.532L540.37 317.711L538.449 316.73L540.37 315.679L541.366 313.857Z" fill="#B8BFD1"/>
<path d="M330.935 170.87L331.931 172.692L333.781 173.673L331.931 174.653L330.935 176.545L329.868 174.653L328.019 173.673L329.868 172.692L330.935 170.87Z" fill="#B8BFD1"/>
<path d="M519.598 38.5304L520.665 40.3519L522.515 41.3327L520.665 42.3135L519.598 44.2051L518.602 42.3135L516.753 41.3327L518.602 40.3519L519.598 38.5304Z" fill="#B8BFD1"/>
<path d="M158.995 443.255L159.991 445.147L161.841 446.128L159.991 447.109L158.995 448.93L158 447.109L156.079 446.128L158 445.147L158.995 443.255Z" fill="#B8BFD1"/>
<path d="M419.862 73.841L421.925 77.6241L425.837 79.7258L421.925 81.8276L419.862 85.6107L417.727 81.8276L413.815 79.7258L417.727 77.6241L419.862 73.841Z" fill="#B8BFD1"/>
<path d="M258.875 312.947L260.156 315.258L262.574 316.59L260.156 317.851L258.875 320.233L257.524 317.851L255.105 316.59L257.524 315.258L258.875 312.947Z" fill="#B8BFD1"/>
<path d="M356.332 391.062C357.541 390.502 359.676 390.712 360.885 392.183C362.094 393.655 362.379 395.756 361.881 397.578C361.098 400.45 358.608 402.762 355.621 403.323C354.411 403.533 353.202 403.463 351.993 403.393C349.36 403.182 346.444 402.552 345.448 399.89C344.879 398.278 345.306 396.597 346.23 395.196C346.942 394.145 348.009 393.094 349.289 392.744C349.93 392.534 350.641 392.534 351.352 392.534C351.423 392.534 351.566 392.534 351.637 392.534C353.202 392.464 354.625 392.043 355.976 391.273C356.119 391.203 356.19 391.133 356.332 391.062Z" fill="#332F55"/>
<path d="M587.391 81.1956L591.232 88.8319L599.84 90.0929L593.58 96.0478L595.074 104.455L587.391 100.461L579.708 104.455L581.202 96.0478L575.013 90.0929L583.549 88.8319L587.391 81.1956Z" fill="#332F55"/>
<path d="M405.062 33.1384L408.904 40.7747L417.512 42.0357L411.252 47.9906L412.745 56.3975L405.062 52.4042L397.38 56.3975L398.873 47.9906L392.613 42.0357L401.221 40.7747L405.062 33.1384Z" fill="#332F55"/>
<path d="M152.168 62.2104L155.938 69.8467L164.546 71.1078L158.357 77.0626L159.78 85.4696L152.168 81.4763L144.485 85.4696L145.908 77.0626L139.718 71.1078L148.326 69.8467L152.168 62.2104Z" fill="#332F55"/>
<path d="M341.608 100.672L345.45 108.309L354.057 109.57L347.868 115.525L349.291 123.932L341.608 119.938L333.996 123.932L335.419 115.525L329.23 109.57L337.767 108.309L341.608 100.672Z" fill="#332F55"/>
<path d="M173.508 294.171L177.35 301.807L185.886 302.998L179.697 308.953L181.12 317.43L173.508 313.437L165.825 317.43L167.248 308.953L161.059 302.998L169.667 301.807L173.508 294.171Z" fill="#332F55"/>
<path d="M201.466 50.1609L202.462 52.0524L204.383 53.0332L202.462 54.0141L201.466 55.8356L200.47 54.0141L198.621 53.0332L200.47 52.0524L201.466 50.1609Z" fill="#B8BFD1"/>
<path d="M65.6619 189.154L68.5074 194.268L73.7005 197.141L68.5074 199.943L65.6619 205.057L62.7452 199.943L57.5521 197.141L62.7452 194.268L65.6619 189.154Z" fill="#B8BFD1"/>
<path d="M622.89 353.581L625.735 358.765L631 361.567L625.735 364.37L622.89 369.554L620.044 364.37L614.78 361.567L620.044 358.765L622.89 353.581Z" fill="#B8BFD1"/>
<path d="M632.779 123.933L635.624 129.118L640.889 131.92L635.624 134.722L632.779 139.907L629.933 134.722L624.669 131.92L629.933 129.118L632.779 123.933Z" fill="#B8BFD1"/>
<path d="M30.5887 284.713L31.9403 287.025L34.2879 288.356L31.9403 289.617L30.5887 291.999L29.3082 289.617L26.8895 288.356L29.3082 287.025L30.5887 284.713Z" fill="#B8BFD1"/>
<path d="M461.406 398.559L462.687 400.871L465.106 402.202L462.687 403.463L461.406 405.845L460.055 403.463L457.707 402.202L460.055 400.871L461.406 398.559Z" fill="#B8BFD1"/>
<path d="M108.417 251.785L106.212 249.683L114.82 248.422L118.661 240.786L122.289 248.072C117.665 249.473 113.112 250.734 108.417 251.785Z" fill="#3C3A71"/>
<path d="M356.475 128.765L348.792 124.772L341.109 128.765L342.532 120.428L349.219 123.931L347.725 115.524L351.78 111.671L352.563 113.212L361.171 114.473L354.981 120.428L356.475 128.835V128.765ZM350.571 109.009L347.298 108.518L348.864 105.436L350.642 108.939L350.571 109.009Z" fill="#3C3A71"/>
<path d="M349.292 123.93L342.605 120.427V120.357L336.416 114.402L344.952 113.141L347.3 108.587L350.572 109.078L351.853 111.67L347.869 115.523L349.292 123.93Z" fill="#3E3A72"/>
<path d="M619.901 82.736H615.846L612.645 80.9846L609.373 82.736H605.318L606.385 76.5709L600.196 70.6161L608.804 69.355L612.645 61.7188L616.486 69.355L625.023 70.6161L618.834 76.5709L619.901 82.736Z" fill="#3C3A71"/>
<path d="M706.265 36.3605L698.582 32.3673L690.899 36.3605L692.393 27.9536L686.133 21.9987L694.741 20.7377L698.582 13.1014L702.424 20.7377L710.961 21.9987L704.772 27.9536L706.265 36.3605Z" fill="#3C3A71"/>
<path d="M648.926 246.531L641.243 242.538L633.632 246.531L635.054 238.124L628.865 232.169L637.402 230.908L641.243 223.272L645.085 230.908L653.693 232.169L647.504 238.124L648.926 246.531Z" fill="#3C3A71"/>
<path d="M694.954 362.688C694.385 361.778 693.816 360.867 693.176 359.956L697.159 360.517L694.954 362.618V362.688Z" fill="#3C3A71"/>
<path d="M399.443 49.9522L400.866 41.5453L400.226 40.9148L401.222 40.7747L405.063 33.1384L408.905 40.7747L413.457 41.4052L413.315 41.5453L413.955 45.3985L411.252 47.9906L411.323 48.2008L407.126 45.959L399.443 49.9522Z" fill="#3E3A72"/>
</svg>

