<svg width="104" height="55" viewBox="0 0 104 55" fill="none" xmlns="http://www.w3.org/2000/svg">
<g filter="url(#filter0_i)">
<path d="M0 32L64 7.74863e-07L104 20L40 52L0 32Z" fill="#3976FF"/>
</g>
<path d="M104 20L40 52V55L104 23V20Z" fill="#C0DBEC"/>
<path d="M0 32L40 52V55L0 35V32Z" fill="#C0DBEC"/>
<path fill-rule="evenodd" clip-rule="evenodd" d="M56.2926 14.4936L71.1997 21.9998L70.8211 14.6865C70.7909 14.1021 71.5954 13.573 72.6061 13.5127C73.6168 13.4524 74.4575 13.8758 74.4878 14.4602L74.999 24.3362C75.0292 24.9207 74.2373 25.4414 73.2266 25.5018L56.149 26.5358C55.1383 26.5961 54.2976 26.1727 54.2673 25.5883C54.2371 25.0038 55.029 24.483 56.0397 24.4227L68.6857 23.6531L53.7786 16.1469C53.0446 15.7773 53.0097 15.1029 53.7011 14.6483C54.3924 14.1936 55.5586 14.124 56.2926 14.4936Z" fill="white"/>
<path d="M50.1986 31.0947L46.544 28.9847C45.7609 28.5326 44.8638 28.3533 44.0158 28.541L30.1541 31.1489L27.1847 29.4346C25.5532 28.4926 23.5474 28.8773 22.7327 30.2883C21.918 31.6994 22.5878 33.6288 24.2194 34.5708L28.4287 37.001C29.2118 37.4531 30.1089 37.6325 30.9569 37.4447L44.8023 34.7897L47.2169 36.1838C48.8484 37.1258 50.8543 36.7411 51.669 35.3301C52.4836 33.9191 51.8301 32.0367 50.1986 31.0947ZM47.7221 35.3843L45.079 33.8583C44.9485 33.7829 44.7854 33.764 44.6549 33.7639L30.6138 36.4565C30.0268 36.5691 29.4395 36.4558 28.9175 36.1544L24.7082 33.7241C23.5987 33.0836 23.1576 31.813 23.7116 30.8535C24.2656 29.894 25.5865 29.6407 26.6959 30.2812L29.8611 32.1086C29.9916 32.184 30.1547 32.2029 30.2852 32.2029L44.3262 29.5104C44.9133 29.3978 45.5005 29.5111 46.0226 29.8125L49.6772 31.9225C50.7866 32.563 51.2277 33.8336 50.6738 34.7931C50.1198 35.7526 48.8315 36.0248 47.7221 35.3843Z" fill="white" fill-opacity="0.5"/>
<path d="M45.8489 39.533L43.8258 38.365C43.5647 38.2143 43.2223 38.2799 43.0919 38.5057C42.9616 38.7315 43.0759 39.0609 43.337 39.2116L44.0875 39.6449L38.1677 40.7801L38.5425 40.131C38.6728 39.9053 38.5585 39.5758 38.2974 39.4251C38.0364 39.2744 37.6939 39.3401 37.5636 39.5658L36.6348 41.1744C36.5045 41.4002 36.6189 41.7296 36.8799 41.8803L38.903 43.0483C39.164 43.1991 39.5065 43.1334 39.6368 42.9076C39.7672 42.6819 39.6528 42.3524 39.3918 42.2017L38.6413 41.7684L44.561 40.6332L44.1863 41.2823C44.0559 41.5081 44.1703 41.8375 44.4313 41.9882C44.6924 42.1389 45.0348 42.0733 45.1652 41.8475L46.0939 40.2389C46.2243 40.0131 46.1099 39.6837 45.8489 39.533Z" fill="white" fill-opacity="0.5"/>
<defs>
<filter id="filter0_i" x="0" y="0" width="104" height="52" filterUnits="userSpaceOnUse" color-interpolation-filters="sRGB">
<feFlood flood-opacity="0" result="BackgroundImageFix"/>
<feBlend mode="normal" in="SourceGraphic" in2="BackgroundImageFix" result="shape"/>
<feColorMatrix in="SourceAlpha" type="matrix" values="0 0 0 0 0 0 0 0 0 0 0 0 0 0 0 0 0 0 127 0" result="hardAlpha"/>
<feOffset/>
<feGaussianBlur stdDeviation="10"/>
<feComposite in2="hardAlpha" operator="arithmetic" k2="-1" k3="1"/>
<feColorMatrix type="matrix" values="0 0 0 0 0.359585 0 0 0 0 0.589191 0 0 0 0 0.755459 0 0 0 0.12 0"/>
<feBlend mode="normal" in2="shape" result="effect1_innerShadow"/>
</filter>
</defs>
</svg>
