<svg width="104" height="55" viewBox="0 0 104 55" fill="none" xmlns="http://www.w3.org/2000/svg">
<g filter="url(#filter0_i)">
<path d="M0 32L64 7.74863e-07L104 20L40 52L0 32Z" fill="#3976FF"/>
</g>
<path d="M104 20L40 52V55L104 23V20Z" fill="#C0DBEC"/>
<path d="M0 32L40 52V55L0 35V32Z" fill="#C0DBEC"/>
<path fill-rule="evenodd" clip-rule="evenodd" d="M56.2926 25.1032L71.1997 17.597L70.8211 24.9103C70.7909 25.4948 71.5954 26.0238 72.6061 26.0842C73.6168 26.1445 74.4575 25.7211 74.4878 25.1366L74.999 15.2607C75.0292 14.6762 74.2373 14.1554 73.2266 14.0951L56.149 13.0611C55.1383 13.0008 54.2975 13.4241 54.2673 14.0086C54.237 14.5931 55.029 15.1138 56.0397 15.1741L68.6857 15.9438L53.7786 23.45C53.0446 23.8196 53.0097 24.4939 53.7011 24.9486C54.3924 25.4032 55.5586 25.4728 56.2926 25.1032Z" fill="white"/>
<defs>
<filter id="filter0_i" x="0" y="0" width="104" height="52" filterUnits="userSpaceOnUse" color-interpolation-filters="sRGB">
<feFlood flood-opacity="0" result="BackgroundImageFix"/>
<feBlend mode="normal" in="SourceGraphic" in2="BackgroundImageFix" result="shape"/>
<feColorMatrix in="SourceAlpha" type="matrix" values="0 0 0 0 0 0 0 0 0 0 0 0 0 0 0 0 0 0 127 0" result="hardAlpha"/>
<feOffset/>
<feGaussianBlur stdDeviation="10"/>
<feComposite in2="hardAlpha" operator="arithmetic" k2="-1" k3="1"/>
<feColorMatrix type="matrix" values="0 0 0 0 0.359585 0 0 0 0 0.589191 0 0 0 0 0.755459 0 0 0 0.12 0"/>
<feBlend mode="normal" in2="shape" result="effect1_innerShadow"/>
</filter>
</defs>
</svg>
