<svg width="128" height="64" viewBox="0 0 128 64" fill="none" xmlns="http://www.w3.org/2000/svg">
<path fill-rule="evenodd" clip-rule="evenodd" d="M88.2189 28.9711C85.0852 29.7041 81.5465 29.0604 80.3151 27.5332C79.0837 26.0061 80.6258 24.1739 83.7595 23.4409C86.8933 22.7079 90.432 23.3517 91.6634 24.8788C92.8948 26.4059 91.3527 28.2381 88.2189 28.9711ZM77.3305 38.5713C77.3305 38.5713 77.2853 38.5487 77.24 38.5261L73.0076 36.0696C72.4224 35.7283 72.2213 35.2383 72.5337 34.7616L74.3537 32.0201L63.9059 34.3921L61.3403 39.1951C61.2793 39.4081 61.031 39.6247 60.7858 39.7943L53.9336 44.3532C52.8561 45.0804 50.8797 45.2608 49.5093 44.7705C49.3704 44.7498 49.2346 44.6819 49.1441 44.6366C48.1031 44.1163 47.9724 43.272 48.9531 42.5938L55.3665 38.3024L58.0995 33.0961L48.7543 34.3641C47.6662 34.5504 46.5548 34.3843 45.8306 34.0223C45.7854 33.9997 45.6948 33.9544 45.6043 33.9092L38.872 29.6675C37.8405 29.0058 38.1423 27.9882 39.5366 27.4194C40.9309 26.8506 42.9369 26.9283 43.9684 27.59L49.4881 31.0796L57.041 30.0354L70.627 26.8952L66.8138 25.8654L60.6395 26.5763C59.1314 26.7474 57.7579 26.3043 57.5272 25.556C57.2966 24.8078 58.2804 24.0825 59.7885 23.9114L66.951 23.1103C67.5645 23.0275 68.1686 23.0861 68.7212 23.2162L74.6961 24.7912C76.0759 25.1401 77.159 25.7302 77.7191 26.4484L79.9235 29.1569C80.5741 29.9203 80.608 30.8136 80.0378 31.6483L77.9631 34.7007L81.3903 36.6086C82.3344 37.178 82.1841 38.0278 81.074 38.5439C79.9638 39.06 78.3262 39.0691 77.3305 38.5713ZM84.0166 47.7071C84.043 48.0124 83.7431 48.3007 83.4012 48.5192C82.9655 48.7396 82.3972 48.845 81.8352 48.8562L72.4688 49.0424C71.8584 49.0781 71.3059 48.9479 70.9438 48.7669C70.5817 48.5859 70.368 48.2844 70.3869 48.0017C70.4278 47.3892 71.3959 46.8995 72.6135 46.8753L76.7347 46.7933L66.5966 41.7254C65.782 41.3181 65.8292 40.6115 66.7005 40.1707C67.5718 39.7299 68.9767 39.702 69.7914 40.1092L79.8842 45.1545L80.0226 43.0816C80.0635 42.4691 81.0316 41.9794 82.2493 41.9552C83.4669 41.931 84.3721 42.3835 84.3312 42.9959L84.0166 47.7071Z" fill="#4B49B8"/>
</svg>
