<svg width="61" height="56" viewBox="0 0 61 56" fill="none" xmlns="http://www.w3.org/2000/svg">
<path fill-rule="evenodd" clip-rule="evenodd" d="M6.64531 30.2576C9.77905 29.5246 13.3177 30.1684 14.5492 31.6955C15.7806 33.2226 14.2384 35.0548 11.1047 35.7878C7.97095 36.5208 4.43228 35.8771 3.20085 34.3499C1.96943 32.8228 3.51156 30.9906 6.64531 30.2576ZM17.5337 20.6574C17.5337 20.6574 17.579 20.6801 17.6242 20.7027L21.8566 23.1592C22.4418 23.5004 22.643 23.9904 22.3305 24.4672L20.5105 27.2087L30.9583 24.8366L33.524 20.0336C33.585 19.8207 33.8333 19.604 34.0784 19.4345L40.9307 14.8756C42.0082 14.1484 43.9846 13.9679 45.3549 14.4582C45.4938 14.479 45.6296 14.5469 45.7201 14.5921C46.7611 15.1125 46.8918 15.9568 45.9111 16.635L39.4977 20.9264L36.7648 26.1327L46.1099 24.8647C47.1981 24.6784 48.3095 24.8445 49.0336 25.2065C49.0789 25.2291 49.1694 25.2743 49.2599 25.3196L55.9922 29.5613C57.0237 30.223 56.7219 31.2406 55.3276 31.8094C53.9333 32.3782 51.9274 32.3004 50.8959 31.6387L45.3761 28.1492L37.8232 29.1934L24.2373 32.3335L28.0504 33.3634L34.2248 32.6525C35.7329 32.4813 37.1064 32.9245 37.337 33.6727C37.5677 34.4209 36.5839 35.1462 35.0758 35.3174L27.9132 36.1185C27.2997 36.2013 26.6956 36.1427 26.1431 36.0126L20.1681 34.4376C18.7883 34.0886 17.7052 33.4985 17.1452 32.7804L14.9408 30.0719C14.2902 29.3085 14.2563 28.4152 14.8265 27.5805L16.9011 24.5281L13.474 22.6202C12.5298 22.0508 12.6801 21.2009 13.7903 20.6848C14.9005 20.1687 16.538 20.1597 17.5337 20.6574ZM10.8476 11.5217C10.8212 11.2164 11.1211 10.9281 11.4631 10.7096C11.8987 10.4892 12.467 10.3838 13.029 10.3726L22.3954 10.1863C23.0058 10.1507 23.5584 10.2808 23.9205 10.4618C24.2825 10.6428 24.4962 10.9444 24.4774 11.2271C24.4365 11.8395 23.4684 12.3293 22.2507 12.3535L18.1295 12.4355L28.2676 17.5034C29.0823 17.9106 29.0351 18.6173 28.1638 19.0581C27.2925 19.4989 25.8875 19.5268 25.0729 19.1195L14.98 14.0742L14.8416 16.1472C14.8007 16.7596 13.8326 17.2494 12.615 17.2736C11.3973 17.2978 10.4921 16.8453 10.533 16.2329L10.8476 11.5217Z" fill="#4B49B8"/>
</svg>
