<svg width="128" height="64" viewBox="0 0 128 64" fill="none" xmlns="http://www.w3.org/2000/svg">
<path fill-rule="evenodd" clip-rule="evenodd" d="M88.2189 34.2576C85.0852 33.5246 81.5465 34.1684 80.3151 35.6955C79.0837 37.2226 80.6258 39.0548 83.7595 39.7878C86.8933 40.5208 90.432 39.877 91.6634 38.3499C92.8948 36.8228 91.3527 34.9906 88.2189 34.2576ZM77.3305 24.6574C77.3305 24.6574 77.2853 24.68 77.24 24.7027L73.0076 27.1592C72.4224 27.5004 72.2213 27.9904 72.5337 28.4671L74.3538 31.2087L63.906 28.8366L61.3403 24.0336C61.2793 23.8207 61.031 23.604 60.7858 23.4345L53.9336 18.8755C52.8561 18.1484 50.8797 17.9679 49.5093 18.4582C49.3704 18.479 49.2346 18.5468 49.1441 18.5921C48.1031 19.1125 47.9724 19.9568 48.9531 20.6349L55.3666 24.9264L58.0995 30.1326L48.7543 28.8647C47.6662 28.6783 46.5548 28.8444 45.8306 29.2064C45.7854 29.2291 45.6949 29.2743 45.6043 29.3196L38.8721 33.5613C37.8405 34.223 38.1423 35.2405 39.5366 35.8093C40.9309 36.3781 42.9369 36.3004 43.9684 35.6387L49.4881 32.1492L57.041 33.1933L70.627 36.3335L66.8138 37.3634L60.6395 36.6525C59.1314 36.4813 57.7579 36.9245 57.5272 37.6727C57.2966 38.4209 58.2804 39.1462 59.7885 39.3173L66.951 40.1185C67.5645 40.2013 68.1686 40.1427 68.7212 40.0125L74.6961 38.4376C76.0759 38.0886 77.159 37.4985 77.7191 36.7804L79.9235 34.0718C80.5741 33.3084 80.608 32.4152 80.0378 31.5805L77.9631 28.5281L81.3903 26.6201C82.3344 26.0508 82.1841 25.2009 81.074 24.6848C79.9638 24.1687 78.3262 24.1597 77.3305 24.6574ZM84.0166 15.5216C84.043 15.2163 83.7431 14.9281 83.4012 14.7096C82.9655 14.4892 82.3972 14.3838 81.8353 14.3726L72.4688 14.1863C71.8584 14.1507 71.3059 14.2808 70.9438 14.4618C70.5817 14.6428 70.368 14.9444 70.3869 15.2271C70.4278 15.8395 71.3959 16.3293 72.6135 16.3535L76.7348 16.4354L66.5967 21.5034C65.782 21.9106 65.8292 22.6173 66.7005 23.0581C67.5718 23.4988 68.9767 23.5268 69.7914 23.1195L79.8842 18.0742L80.0226 20.1472C80.0635 20.7596 81.0316 21.2494 82.2493 21.2736C83.4669 21.2978 84.3721 20.8453 84.3312 20.2328L84.0166 15.5216Z" fill="#4B49B8"/>
</svg>
