<svg width="128" height="64" viewBox="0 0 128 64" fill="none" xmlns="http://www.w3.org/2000/svg">
<path fill-rule="evenodd" clip-rule="evenodd" d="M40.6453 34.2576C43.779 33.5246 47.3177 34.1684 48.5491 35.6955C49.7806 37.2226 48.2384 39.0548 45.1047 39.7878C41.9709 40.5208 38.4323 39.877 37.2008 38.3499C35.9694 36.8228 37.5116 34.9906 40.6453 34.2576ZM51.5337 24.6574C51.5337 24.6574 51.579 24.68 51.6242 24.7027L55.8566 27.1592C56.4418 27.5004 56.6429 27.9904 56.3305 28.4671L54.5105 31.2087L64.9583 28.8366L67.524 24.0336C67.5849 23.8207 67.8333 23.604 68.0784 23.4345L74.9307 18.8755C76.0082 18.1484 77.9845 17.9679 79.3549 18.4582C79.4938 18.479 79.6296 18.5468 79.7201 18.5921C80.7611 19.1125 80.8918 19.9568 79.9111 20.6349L73.4977 24.9264L70.7648 30.1326L80.1099 28.8647C81.1981 28.6783 82.3095 28.8444 83.0336 29.2064C83.0789 29.2291 83.1694 29.2743 83.2599 29.3196L89.9922 33.5613C91.0237 34.223 90.7219 35.2405 89.3276 35.8093C87.9333 36.3781 85.9274 36.3004 84.8958 35.6387L79.3761 32.1492L71.8232 33.1933L58.2373 36.3335L62.0504 37.3634L68.2248 36.6525C69.7328 36.4813 71.1064 36.9245 71.337 37.6727C71.5677 38.4209 70.5838 39.1462 69.0758 39.3173L61.9132 40.1185C61.2997 40.2013 60.6956 40.1427 60.143 40.0125L54.1681 38.4376C52.7883 38.0886 51.7052 37.4985 51.1452 36.7804L48.9407 34.0718C48.2902 33.3084 48.2563 32.4152 48.8265 31.5805L50.9011 28.5281L47.474 26.6201C46.5298 26.0508 46.6801 25.2009 47.7903 24.6848C48.9005 24.1687 50.538 24.1597 51.5337 24.6574ZM44.8476 15.5216C44.8212 15.2163 45.1211 14.9281 45.4631 14.7096C45.8987 14.4892 46.467 14.3838 47.029 14.3726L56.3954 14.1863C57.0058 14.1507 57.5584 14.2808 57.9204 14.4618C58.2825 14.6428 58.4962 14.9444 58.4774 15.2271C58.4365 15.8395 57.4684 16.3293 56.2507 16.3535L52.1295 16.4354L62.2676 21.5034C63.0822 21.9106 63.0351 22.6173 62.1638 23.0581C61.2925 23.4988 59.8875 23.5268 59.0728 23.1195L48.98 18.0742L48.8416 20.1472C48.8007 20.7596 47.8326 21.2494 46.615 21.2736C45.3973 21.2978 44.4921 20.8453 44.533 20.2328L44.8476 15.5216Z" fill="#4B49B8"/>
</svg>
