<svg width="128" height="64" viewBox="0 0 128 64" fill="none" xmlns="http://www.w3.org/2000/svg">
<path fill-rule="evenodd" clip-rule="evenodd" d="M40.6453 28.9711C43.779 29.7041 47.3177 29.0604 48.5491 27.5332C49.7806 26.0061 48.2384 24.1739 45.1047 23.4409C41.9709 22.7079 38.4323 23.3517 37.2008 24.8788C35.9694 26.4059 37.5116 28.2381 40.6453 28.9711ZM51.5337 38.5713C51.5337 38.5713 51.579 38.5487 51.6242 38.5261L55.8566 36.0696C56.4418 35.7283 56.6429 35.2383 56.3305 34.7616L54.5105 32.0201L64.9583 34.3921L67.524 39.1951C67.5849 39.4081 67.8333 39.6247 68.0784 39.7943L74.9307 44.3532C76.0082 45.0804 77.9845 45.2608 79.3549 44.7705C79.4938 44.7498 79.6296 44.6819 79.7201 44.6366C80.7611 44.1163 80.8918 43.272 79.9111 42.5938L73.4977 38.3024L70.7648 33.0961L80.1099 34.3641C81.1981 34.5504 82.3095 34.3843 83.0336 34.0223C83.0789 33.9997 83.1694 33.9544 83.2599 33.9092L89.9922 29.6675C91.0237 29.0058 90.7219 27.9882 89.3276 27.4194C87.9333 26.8506 85.9274 26.9283 84.8958 27.59L79.3761 31.0796L71.8232 30.0354L58.2373 26.8952L62.0504 25.8654L68.2248 26.5763C69.7328 26.7474 71.1064 26.3043 71.337 25.556C71.5677 24.8078 70.5838 24.0825 69.0758 23.9114L61.9132 23.1103C61.2997 23.0275 60.6956 23.0861 60.143 23.2162L54.1681 24.7912C52.7883 25.1401 51.7052 25.7302 51.1452 26.4484L48.9407 29.1569C48.2902 29.9203 48.2563 30.8136 48.8265 31.6483L50.9011 34.7007L47.474 36.6086C46.5298 37.178 46.6801 38.0278 47.7903 38.5439C48.9005 39.06 50.538 39.0691 51.5337 38.5713ZM44.8476 47.7071C44.8212 48.0124 45.1211 48.3007 45.4631 48.5192C45.8987 48.7396 46.467 48.845 47.029 48.8562L56.3954 49.0424C57.0058 49.0781 57.5584 48.9479 57.9204 48.7669C58.2825 48.5859 58.4962 48.2844 58.4774 48.0017C58.4365 47.3892 57.4684 46.8995 56.2507 46.8753L52.1295 46.7933L62.2676 41.7254C63.0822 41.3181 63.0351 40.6115 62.1638 40.1707C61.2925 39.7299 59.8875 39.702 59.0728 40.1092L48.98 45.1545L48.8416 43.0816C48.8007 42.4691 47.8326 41.9794 46.615 41.9552C45.3973 41.931 44.4921 42.3835 44.533 42.9959L44.8476 47.7071Z" fill="#4B49B8"/>
</svg>
