<svg width="128" height="64" viewBox="0 0 128 64" fill="none" xmlns="http://www.w3.org/2000/svg">
<mask id="mask0" mask-type="alpha" maskUnits="userSpaceOnUse" x="51" y="25" width="77" height="39">
<path d="M116 26L128 32L64 64L52 58L116 26Z" fill="#C4C4C4"/>
</mask>
<g mask="url(#mask0)">
<path d="M0 28H128" stroke="#4DBC8E" stroke-width="0.5"/>
<path d="M0 31H128" stroke="#4DBC8E" stroke-width="0.5"/>
<path d="M0 34H128" stroke="#4DBC8E" stroke-width="0.5"/>
<path d="M0 37H128" stroke="#4DBC8E" stroke-width="0.5"/>
<path d="M0 40H128" stroke="#4DBC8E" stroke-width="0.5"/>
<path d="M0 43H128" stroke="#4DBC8E" stroke-width="0.5"/>
<path d="M0 46H128" stroke="#4DBC8E" stroke-width="0.5"/>
<path d="M0 49H128" stroke="#4DBC8E" stroke-width="0.5"/>
<path d="M0 52H128" stroke="#4DBC8E" stroke-width="0.5"/>
<path d="M0 55H128" stroke="#4DBC8E" stroke-width="0.5"/>
<path d="M0 58H128" stroke="#4DBC8E" stroke-width="0.5"/>
<path d="M0 61H128" stroke="#4DBC8E" stroke-width="0.5"/>
<path d="M0 64H128" stroke="#4DBC8E" stroke-width="0.5"/>
</g>
<ellipse rx="6.33516" ry="4.0726" transform="matrix(1 0 0 -1 86.6703 41.0298)" fill="#4DBC8E"/>
<path d="M88.2056 35.0695L88.2055 35.358L88.1054 35.4159C90.2945 35.67 92.3827 36.384 93.8724 37.59L93.873 37.5905C95.0864 38.5761 95.7204 39.8105 95.6644 41.0909C95.6087 42.367 94.8727 43.5741 93.5837 44.5229C91.6589 45.9435 88.903 46.6316 86.1958 46.6374C83.4891 46.6431 80.7379 45.9669 78.8238 44.5531C77.5408 43.6081 76.8144 42.4016 76.77 41.1245C76.7255 39.8448 77.3698 38.6101 78.5896 37.6213L78.5903 37.6208C80.0913 36.408 82.1886 35.6849 84.3836 35.4226L84.2815 35.3637L84.2828 35.0733L84.3041 30.2972C84.3063 29.8121 84.6461 29.4687 84.983 29.2741C85.3345 29.0712 85.7867 28.9602 86.2585 28.9592C86.7302 28.9582 87.1823 29.0673 87.5335 29.2696C87.8705 29.4637 88.2091 29.808 88.2075 30.2944C88.2075 30.2947 88.2075 30.2951 88.2075 30.2955L88.2056 35.0695ZM82.0948 38.886C80.968 39.5366 80.517 40.3148 80.514 40.9876C80.511 41.6588 80.9531 42.4323 82.0718 43.0768C83.1875 43.7195 84.6798 44.0533 86.2008 44.05C87.7215 44.0468 89.2178 43.7068 90.3408 43.0584C91.4676 42.4078 91.9186 41.6296 91.9216 40.9568C91.9246 40.2856 91.4825 39.5121 90.3638 38.8677C89.2481 38.2249 87.7558 37.8912 86.2349 37.8944C84.7141 37.8976 83.2179 38.2377 82.0948 38.886Z" fill="white" stroke="#4DBC8E"/>
</svg>
