<svg width="128" height="64" viewBox="0 0 128 64" fill="none" xmlns="http://www.w3.org/2000/svg">
<mask id="mask0" mask-type="alpha" maskUnits="userSpaceOnUse" x="0" y="25" width="76" height="39">
<path d="M64 64L76 58L12 26L0 32L64 64Z" fill="#C4C4C4"/>
</mask>
<g mask="url(#mask0)">
<path d="M0 28H128" stroke="#FCBA43" stroke-width="0.5"/>
<path d="M0 31H128" stroke="#FCBA43" stroke-width="0.5"/>
<path d="M0 34H128" stroke="#FCBA43" stroke-width="0.5"/>
<path d="M0 37H128" stroke="#FCBA43" stroke-width="0.5"/>
<path d="M0 40H128" stroke="#FCBA43" stroke-width="0.5"/>
<path d="M0 43H128" stroke="#FCBA43" stroke-width="0.5"/>
<path d="M0 46H128" stroke="#FCBA43" stroke-width="0.5"/>
<path d="M0 49H128" stroke="#FCBA43" stroke-width="0.5"/>
<path d="M0 52H128" stroke="#FCBA43" stroke-width="0.5"/>
<path d="M0 55H128" stroke="#FCBA43" stroke-width="0.5"/>
<path d="M0 58H128" stroke="#FCBA43" stroke-width="0.5"/>
<path d="M0 61H128" stroke="#FCBA43" stroke-width="0.5"/>
<path d="M0 64H128" stroke="#FCBA43" stroke-width="0.5"/>
</g>
<ellipse rx="6.33516" ry="4.0726" transform="matrix(1 0 0 -1 46.6703 42.0298)" fill="#FCBA43"/>
<path d="M48.2056 36.0695L48.2055 36.358L48.1053 36.4159C50.2945 36.6699 52.3827 37.384 53.8724 38.59L53.873 38.5905C55.0864 39.5761 55.7204 40.8105 55.6644 42.0909C55.6087 43.367 54.8727 44.5741 53.5836 45.5229C51.6589 46.9435 48.9029 47.6316 46.1958 47.6374C43.4891 47.6431 40.7379 46.9669 38.8238 45.5531C37.5408 44.6081 36.8144 43.4016 36.77 42.1245C36.7255 40.8448 37.3698 39.6101 38.5896 38.6213L38.5902 38.6208C40.0913 37.408 42.1886 36.6849 44.3836 36.4226L44.2815 36.3637L44.2828 36.0733L44.3041 31.2972C44.3063 30.8121 44.6461 30.4687 44.983 30.2741C45.3345 30.0712 45.7867 29.9602 46.2585 29.9592C46.7302 29.9582 47.1823 30.0673 47.5335 30.2696C47.8704 30.4637 48.2091 30.808 48.2075 31.2944C48.2075 31.2947 48.2075 31.2951 48.2075 31.2955L48.2056 36.0695ZM42.0948 39.886C40.968 40.5366 40.517 41.3148 40.514 41.9876C40.511 42.6588 40.9531 43.4323 42.0718 44.0768C43.1875 44.7195 44.6798 45.0533 46.2007 45.05C47.7215 45.0468 49.2177 44.7068 50.3408 44.0584C51.4676 43.4078 51.9186 42.6296 51.9216 41.9568C51.9246 41.2856 51.4825 40.5121 50.3638 39.8677C49.2481 39.2249 47.7558 38.8912 46.2349 38.8944C44.7141 38.8976 43.2178 39.2376 42.0948 39.886Z" fill="white" stroke="#FCBA43"/>
</svg>
