<svg width="75" height="48" viewBox="0 0 75 48" fill="none" xmlns="http://www.w3.org/2000/svg">
<path fill-rule="evenodd" clip-rule="evenodd" d="M36.1183 14.4483L0.232145 13.9695L0.225475 14.4695L37.146 14.962L36.1183 14.4483ZM30.2749 11.5272L2.89717 11.162L2.90384 10.662L29.2472 11.0135L30.2749 11.5272ZM22.9972 7.88918L11.7274 7.73883L11.734 7.23888L21.9695 7.37543L22.9972 7.88918ZM44.0465 18.4115L8.16033 17.9327L8.15366 18.4327L45.0742 18.9252L44.0465 18.4115ZM50.9176 21.8463L15.0314 21.3675L15.0248 21.8675L51.9453 22.36L50.9176 21.8463ZM58.8605 25.8169L22.8158 25.336L22.8091 25.836L59.8883 26.3306L58.8605 25.8169ZM65.7316 29.2517L29.6869 28.7708L29.6802 29.2708L66.7593 29.7654L65.7316 29.2517ZM73.8322 33.3011L37.7875 32.8202L37.7808 33.3202L73.9742 33.803L73.9799 33.3749L73.8322 33.3011ZM44.6519 36.755L65.6374 37.0349L65.644 36.535L44.6586 36.255L44.6519 36.755ZM51.8792 40.3678L56.8685 40.4343L56.8751 39.9344L51.8858 39.8678L51.8792 40.3678Z" fill="#4DBC8E"/>
<ellipse cx="30.5865" cy="23.0563" rx="6.33516" ry="4.0726" fill="#4DBC8E"/>
<path d="M32.1218 29.0167L32.1217 28.7281L32.0215 28.6703C34.2107 28.4162 36.2989 27.7022 37.7886 26.4961L37.7892 26.4956C39.0026 25.5101 39.6366 24.2757 39.5806 22.9952C39.5249 21.7192 38.7889 20.512 37.4998 19.5633C35.5751 18.1427 32.8191 17.4546 30.112 17.4488C27.4053 17.4431 24.6541 18.1193 22.74 19.5331C21.457 20.478 20.7305 21.6846 20.6861 22.9617C20.6417 24.2414 21.286 25.4761 22.5058 26.4648L22.5064 26.4653C24.0075 27.6781 26.1048 28.4012 28.2998 28.6636L28.1976 28.7224L28.1989 29.0129L28.2203 33.7889C28.2225 34.274 28.5623 34.6175 28.8992 34.812C29.2507 35.0149 29.7029 35.126 30.1747 35.127C30.6464 35.128 31.0985 35.0189 31.4497 34.8166C31.7866 34.6225 32.1253 34.2781 32.1237 33.7918C32.1237 33.7914 32.1237 33.791 32.1237 33.7906L32.1218 29.0167ZM26.011 25.2001C24.8842 24.5495 24.4332 23.7713 24.4302 23.0985C24.4272 22.4274 24.8693 21.6539 25.988 21.0094C27.1037 20.3667 28.596 20.0329 30.1169 20.0361C31.6377 20.0394 33.1339 20.3794 34.257 21.0278C35.3838 21.6784 35.8348 22.4566 35.8378 23.1294C35.8408 23.8005 35.3987 24.574 34.28 25.2185C33.1643 25.8612 31.672 26.195 30.1511 26.1918C28.6303 26.1885 27.134 25.8485 26.011 25.2001Z" fill="white" stroke="#4DBC8E"/>
</svg>
