<svg width="128" height="64" viewBox="0 0 128 64" fill="none" xmlns="http://www.w3.org/2000/svg">
<mask id="mask0" mask-type="alpha" maskUnits="userSpaceOnUse" x="51" y="0" width="77" height="38">
<path d="M128 32L64 0L52 6L116 38L128 32Z" fill="#C4C4C4"/>
</mask>
<g mask="url(#mask0)">
<path d="M0 1H128" stroke="#FCBA43" stroke-width="0.5"/>
<path d="M0 4H128" stroke="#FCBA43" stroke-width="0.5"/>
<path d="M0 7H128" stroke="#FCBA43" stroke-width="0.5"/>
<path d="M0 10H128" stroke="#FCBA43" stroke-width="0.5"/>
<path d="M0 13H128" stroke="#FCBA43" stroke-width="0.5"/>
<path d="M0 16H128" stroke="#FCBA43" stroke-width="0.5"/>
<path d="M0 19H128" stroke="#FCBA43" stroke-width="0.5"/>
<path d="M0 22H128" stroke="#FCBA43" stroke-width="0.5"/>
<path d="M0 25H128" stroke="#FCBA43" stroke-width="0.5"/>
<path d="M0 28H128" stroke="#FCBA43" stroke-width="0.5"/>
<path d="M0 31H128" stroke="#FCBA43" stroke-width="0.5"/>
<path d="M0 34H128" stroke="#FCBA43" stroke-width="0.5"/>
<path d="M0 37H128" stroke="#FCBA43" stroke-width="0.5"/>
</g>
<ellipse cx="81.6703" cy="21.0747" rx="6.33516" ry="4.0726" fill="#FCBA43"/>
<path d="M83.2056 27.0351L83.2055 26.7465L83.1054 26.6887C85.2945 26.4346 87.3827 25.7206 88.8724 24.5145L88.873 24.514C90.0864 23.5285 90.7204 22.2941 90.6644 21.0136C90.6087 19.7376 89.8727 18.5304 88.5837 17.5817C86.6589 16.1611 83.903 15.473 81.1958 15.4672C78.4891 15.4615 75.7379 16.1377 73.8238 17.5515C72.5408 18.4964 71.8144 19.703 71.77 20.9801C71.7255 22.2598 72.3698 23.4945 73.5896 24.4832L73.5903 24.4837C75.0913 25.6965 77.1886 26.4196 79.3836 26.682L79.2815 26.7408L79.2828 27.0313L79.3041 31.8074C79.3063 32.2924 79.6461 32.6359 79.983 32.8304C80.3345 33.0334 80.7867 33.1444 81.2585 33.1454C81.7302 33.1464 82.1823 33.0373 82.5335 32.835C82.8705 32.6409 83.2091 32.2966 83.2075 31.8102C83.2075 31.8098 83.2075 31.8094 83.2075 31.809L83.2056 27.0351ZM77.0948 23.2185C75.968 22.5679 75.517 21.7897 75.514 21.117C75.511 20.4458 75.9531 19.6723 77.0718 19.0278C78.1875 18.3851 79.6798 18.0513 81.2008 18.0545C82.7215 18.0578 84.2178 18.3978 85.3408 19.0462C86.4677 19.6968 86.9186 20.475 86.9216 21.1478C86.9246 21.8189 86.4825 22.5925 85.3638 23.2369C84.2481 23.8797 82.7558 24.2134 81.2349 24.2102C79.7141 24.207 78.2179 23.8669 77.0948 23.2185Z" fill="white" stroke="#FCBA43"/>
</svg>
