<svg width="128" height="64" viewBox="0 0 128 64" fill="none" xmlns="http://www.w3.org/2000/svg">
<mask id="mask0" mask-type="alpha" maskUnits="userSpaceOnUse" x="0" y="0" width="76" height="38">
<path d="M64 0L76 6L12 38L0 32L64 0Z" fill="#C4C4C4"/>
</mask>
<g mask="url(#mask0)">
<path d="M0 36H128" stroke="#FCBA43" stroke-width="0.5"/>
<path d="M0 33H128" stroke="#FCBA43" stroke-width="0.5"/>
<path d="M0 30H128" stroke="#FCBA43" stroke-width="0.5"/>
<path d="M0 27H128" stroke="#FCBA43" stroke-width="0.5"/>
<path d="M0 24H128" stroke="#FCBA43" stroke-width="0.5"/>
<path d="M0 21H128" stroke="#FCBA43" stroke-width="0.5"/>
<path d="M0 18H128" stroke="#FCBA43" stroke-width="0.5"/>
<path d="M0 15H128" stroke="#FCBA43" stroke-width="0.5"/>
<path d="M0 12H128" stroke="#FCBA43" stroke-width="0.5"/>
<path d="M0 9H128" stroke="#FCBA43" stroke-width="0.5"/>
<path d="M0 6H128" stroke="#FCBA43" stroke-width="0.5"/>
<path d="M0 3H128" stroke="#FCBA43" stroke-width="0.5"/>
<path d="M0 0H128" stroke="#FCBA43" stroke-width="0.5"/>
</g>
<ellipse cx="48.6703" cy="20.0747" rx="6.33516" ry="4.0726" fill="#FCBA43"/>
<path d="M50.2056 26.0351L50.2055 25.7465L50.1053 25.6887C52.2945 25.4346 54.3827 24.7206 55.8724 23.5145L55.873 23.514C57.0864 22.5285 57.7204 21.2941 57.6644 20.0136C57.6087 18.7376 56.8727 17.5304 55.5836 16.5817C53.6589 15.1611 50.9029 14.473 48.1958 14.4672C45.4891 14.4615 42.7379 15.1377 40.8238 16.5515C39.5408 17.4964 38.8144 18.703 38.77 19.9801C38.7255 21.2598 39.3698 22.4945 40.5896 23.4832L40.5902 23.4837C42.0913 24.6965 44.1886 25.4196 46.3836 25.682L46.2815 25.7408L46.2828 26.0313L46.3041 30.8074C46.3063 31.2924 46.6461 31.6359 46.983 31.8304C47.3345 32.0334 47.7867 32.1444 48.2585 32.1454C48.7302 32.1464 49.1823 32.0373 49.5335 31.835C49.8704 31.6409 50.2091 31.2966 50.2075 30.8102C50.2075 30.8098 50.2075 30.8094 50.2075 30.809L50.2056 26.0351ZM44.0948 22.2185C42.968 21.5679 42.517 20.7897 42.514 20.117C42.511 19.4458 42.9531 18.6723 44.0718 18.0278C45.1875 17.3851 46.6798 17.0513 48.2007 17.0545C49.7215 17.0578 51.2177 17.3978 52.3408 18.0462C53.4676 18.6968 53.9186 19.475 53.9216 20.1478C53.9246 20.8189 53.4825 21.5925 52.3638 22.2369C51.2481 22.8797 49.7558 23.2134 48.2349 23.2102C46.7141 23.207 45.2178 22.8669 44.0948 22.2185Z" fill="white" stroke="#FCBA43"/>
</svg>
