<svg width="20" height="43" viewBox="0 0 20 43" fill="none" xmlns="http://www.w3.org/2000/svg">
<path d="M13.6985 19.4903L17.4157 16.1198C18.2584 15.3556 18.7453 14.2147 18.7453 13.0005V5.30696H19.0543C19.5693 5.30696 19.9906 4.83593 19.9906 4.26023V1.04674C19.9906 0.471032 19.5693 0 19.0543 0H0.936329C0.421348 0 0 0.471032 0 1.04674V4.27069C0 4.8464 0.421348 5.31743 0.936329 5.31743H1.24532V13.011C1.24532 14.2252 1.73221 15.3661 2.57491 16.1302L6.29213 19.5007C6.42322 19.6159 6.48876 19.7833 6.48876 19.9718V23.0282C6.48876 23.2062 6.41386 23.3841 6.29213 23.4993L2.57491 26.8698C1.73221 27.6339 1.24532 28.7748 1.24532 29.989V37.6826H0.936329C0.421348 37.6826 0 38.1536 0 38.7293V41.9533C0 42.529 0.421348 43 0.936329 43H19.0637C19.5787 43 20 42.529 20 41.9533V38.7293C20 38.1536 19.5787 37.6826 19.0637 37.6826H18.7453V29.989C18.7453 28.7748 18.2584 27.6339 17.4157 26.8698L13.6985 23.4993C13.5768 23.3841 13.5019 23.2167 13.5019 23.0282V19.9508C13.5019 19.7729 13.5674 19.6054 13.6985 19.4903ZM1.87266 2.09348H18.1273V3.22395H1.87266V2.09348ZM18.1273 40.8961H1.87266V39.7656H18.1273V40.8961ZM12.5187 25.1217L16.236 28.4922C16.6386 28.8586 16.8727 29.4029 16.8727 29.989V37.6826H3.11798V29.989C3.11798 29.4029 3.35206 28.8586 3.75468 28.4922L7.47191 25.1217C8.04307 24.6088 8.36142 23.8447 8.36142 23.0282V19.9508C8.36142 19.1344 8.03371 18.3703 7.47191 17.8573L3.75468 14.4869C3.35206 14.1205 3.11798 13.5762 3.11798 13.0005V5.30696H16.8727V13.0005C16.8727 13.5867 16.6386 14.131 16.236 14.4869L12.5187 17.8573C11.9476 18.3703 11.6292 19.1344 11.6292 19.9508V23.0282C11.6292 23.8447 11.9569 24.6088 12.5187 25.1217Z" fill="black"/>
<path d="M10.9551 27.0372C10.9551 27.3204 10.8544 27.592 10.6753 27.7922C10.4962 27.9924 10.2533 28.1049 10 28.1049C9.7467 28.1049 9.50378 27.9924 9.32467 27.7922C9.14556 27.592 9.04494 27.3204 9.04494 27.0372C9.04494 26.7541 9.14556 26.4825 9.32467 26.2823C9.50378 26.0821 9.7467 25.9696 10 25.9696C10.2533 25.9696 10.4962 26.0821 10.6753 26.2823C10.8544 26.4825 10.9551 26.7541 10.9551 27.0372Z" fill="black"/>
<path d="M15.5337 13.5239C15.6742 13.3982 15.7491 13.2098 15.7491 13.011V12.7807H4.24158V13.011C4.24158 13.2098 4.32585 13.3982 4.45693 13.5239L8.17416 16.8944C9.00749 17.648 9.48502 18.768 9.48502 19.9613V23.6458C9.48502 23.9598 9.70974 24.211 9.99064 24.211C10.2715 24.211 10.4963 23.9598 10.4963 23.6458V19.9613C10.4963 18.768 10.9738 17.648 11.8071 16.8944L15.5337 13.5239Z" fill="black"/>
<path d="M8.18352 32.9409L5.00936 36.416H14.9906L11.8165 32.9409C10.8052 31.8418 9.19476 31.8418 8.18352 32.9409Z" fill="black"/>
</svg>
