<svg width="128" height="64" viewBox="0 0 128 64" fill="none" xmlns="http://www.w3.org/2000/svg">
<path d="M67.6985 29.4903L71.4157 26.1198C72.2584 25.3556 72.7453 24.2147 72.7453 23.0005V15.307H73.0543C73.5693 15.307 73.9906 14.8359 73.9906 14.2602V11.0467C73.9906 10.471 73.5693 10 73.0543 10H54.9363C54.4213 10 54 10.471 54 11.0467V14.2707C54 14.8464 54.4213 15.3174 54.9363 15.3174H55.2453V23.0109C55.2453 24.2252 55.7322 25.3661 56.5749 26.1302L60.2921 29.5007C60.4232 29.6159 60.4888 29.7833 60.4888 29.9718V33.0282C60.4888 33.2062 60.4138 33.3841 60.2921 33.4993L56.5749 36.8698C55.7322 37.6339 55.2453 38.7748 55.2453 39.989V47.6826H54.9363C54.4213 47.6826 54 48.1536 54 48.7293V51.9532C54 52.529 54.4213 53 54.9363 53H73.0637C73.5786 53 74 52.529 74 51.9532V48.7293C74 48.1536 73.5786 47.6826 73.0637 47.6826H72.7453V39.989C72.7453 38.7748 72.2584 37.6339 71.4157 36.8698L67.6985 33.4993C67.5768 33.3841 67.5019 33.2166 67.5019 33.0282V29.9508C67.5019 29.7729 67.5674 29.6054 67.6985 29.4903ZM55.8726 12.0935H72.1273V13.2239H55.8726V12.0935ZM72.1273 50.896H55.8726V49.7656H72.1273V50.896ZM66.5187 35.1217L70.2359 38.4922C70.6386 38.8586 70.8726 39.4029 70.8726 39.989V47.6826H57.118V39.989C57.118 39.4029 57.352 38.8586 57.7547 38.4922L61.4719 35.1217C62.0431 34.6088 62.3614 33.8447 62.3614 33.0282V29.9508C62.3614 29.1344 62.0337 28.3702 61.4719 27.8573L57.7547 24.4869C57.352 24.1205 57.118 23.5762 57.118 23.0005V15.307H70.8726V23.0005C70.8726 23.5867 70.6386 24.131 70.2359 24.4869L66.5187 27.8573C65.9475 28.3702 65.6292 29.1344 65.6292 29.9508V33.0282C65.6292 33.8447 65.9569 34.6088 66.5187 35.1217Z" fill="black"/>
<path d="M64.955 37.0373C64.955 37.3204 64.8544 37.592 64.6753 37.7922C64.4962 37.9925 64.2533 38.1049 64 38.1049C63.7467 38.1049 63.5038 37.9925 63.3247 37.7922C63.1455 37.592 63.0449 37.3204 63.0449 37.0373C63.0449 36.7541 63.1455 36.4825 63.3247 36.2823C63.5038 36.0821 63.7467 35.9696 64 35.9696C64.2533 35.9696 64.4962 36.0821 64.6753 36.2823C64.8544 36.4825 64.955 36.7541 64.955 37.0373Z" fill="black"/>
<path d="M69.5337 23.5239C69.6741 23.3983 69.749 23.2099 69.749 23.011V22.7807H58.2416V23.011C58.2416 23.2099 58.3258 23.3983 58.4569 23.5239L62.1741 26.8944C63.0075 27.648 63.485 28.768 63.485 29.9613V33.6458C63.485 33.9599 63.7097 34.2111 63.9906 34.2111C64.2715 34.2111 64.4962 33.9599 64.4962 33.6458V29.9613C64.4962 28.768 64.9738 27.648 65.8071 26.8944L69.5337 23.5239Z" fill="black"/>
<path d="M62.1835 42.9408L59.0093 46.416H68.9906L65.8165 42.9408C64.8052 41.8417 63.1947 41.8417 62.1835 42.9408Z" fill="black"/>
</svg>
