<svg width="1478" height="283" viewBox="0 0 1478 283" fill="none" xmlns="http://www.w3.org/2000/svg">
<path fill-rule="evenodd" clip-rule="evenodd" d="M1178 24H263V46H198V235H1281V46H1178V24Z" fill="#C0DBEC"/>
<mask id="mask0" mask-type="alpha" maskUnits="userSpaceOnUse" x="-1" y="0" width="1479" height="283">
<path fill-rule="evenodd" clip-rule="evenodd" d="M1290.54 45C1141.34 -15 288.719 -15 167.329 45C53.8931 101.069 -1 283 -1 283H1478C1478 283 1411.67 93.7121 1290.54 45ZM1243.54 77.4545C1152.46 15.5152 305.282 15.5152 222.502 77.4545C167.309 118.752 245.16 196.773 330.327 212.184C395.29 223.939 1028.92 223.939 1137.82 212.184C1225.44 202.726 1301.95 117.177 1243.54 77.4545Z" fill="#C4C4C4"/>
</mask>
<g mask="url(#mask0)">
<rect x="-27.0145" width="1545.57" height="368" fill="#255B87"/>
<path d="M338.719 210H1168.12L1445.1 314H34.9612L338.719 210Z" fill="#528AC7"/>
<path d="M344.074 94H1173.48L1450.46 -10H40.3171L344.074 94Z" fill="#0B4D7F"/>
<path d="M143.365 92.0869C184.303 165.589 263.736 214.174 54.5937 263.918C-35.3718 285.317 -141.49 243.078 -182.429 169.576C-223.367 96.0744 -183.623 19.1428 -93.6572 -2.25531C-3.69177 -23.6534 102.427 18.585 143.365 92.0869Z" fill="#2E6995"/>
</g>
</svg>
