<svg width="42" height="69" viewBox="0 0 42 69" fill="none" xmlns="http://www.w3.org/2000/svg">
<path fill-rule="evenodd" clip-rule="evenodd" d="M20.9437 69C32.5106 69 41.8874 63.6919 41.8874 57.1441C41.8874 56.9368 41.878 56.7308 41.8594 56.5261H42V47.1987H32.3488C29.0672 45.9903 25.1503 45.2883 20.9437 45.2883C16.7371 45.2883 12.8202 45.9903 9.53862 47.1987H0.112601V55.9073C0.0381555 56.3138 0 56.7265 0 57.1441C0 63.6919 9.37681 69 20.9437 69Z" fill="#F9CE60"/>
<ellipse cx="21.0563" cy="46.9178" rx="20.9437" ry="11.8559" fill="#F69C49"/>
<path fill-rule="evenodd" clip-rule="evenodd" d="M15.0885 29.5554C14.1126 33.3575 9.96516 41.4112 1.18232 43.2093L1.18239 43.2093L1.18231 43.2092C1.17021 43.178 1.15855 43.1465 1.14733 43.1146C0.475777 44.2762 0.11261 45.5168 0.11261 46.8054C0.11261 53.3532 9.48942 58.6612 21.0563 58.6612C32.6232 58.6612 42 53.3532 42 46.8054C42 45.554 41.6575 44.3479 41.0228 43.2155C41.0733 43.2115 41.0992 43.2093 41.0992 43.2093C32.3164 41.4112 28.1689 33.3575 27.193 29.5554H23.0831H22.4075H19.874H19.1421H15.0885Z" fill="#FCBA43"/>
<path d="M12.6217 42.816C16.0448 40.0739 17.5761 32.3086 17.9139 28.7687C19.5466 37.0847 14.5359 54.1998 9.69409 51.3005C8.84958 50.7948 8.34288 46.2435 12.6217 42.816Z" fill="#EED486"/>
<path fill-rule="evenodd" clip-rule="evenodd" d="M21.0563 30.6792C27.2751 30.6792 32.3164 27.761 32.3164 24.1612V18.6547H27.0836C25.3409 18.0142 23.2734 17.6433 21.0563 17.6433C18.8392 17.6433 16.7718 18.0142 15.0291 18.6547H9.79626V24.1612C9.79626 24.1612 9.79626 24.1613 9.79626 24.1613C9.79628 27.761 14.8376 30.6792 21.0563 30.6792Z" fill="#F9CE60"/>
<ellipse cx="21.0563" cy="18.6547" rx="11.2601" ry="6.51792" fill="#F69C49"/>
<ellipse cx="21.0563" cy="11.2378" rx="11.2601" ry="11.2378" fill="#FCBA43"/>
<ellipse cx="16.9464" cy="9.82166" rx="3.32172" ry="3.31515" fill="#EED486"/>
</svg>

