<svg width="77" height="89" viewBox="0 0 77 89" fill="none" xmlns="http://www.w3.org/2000/svg">
<mask id="path-1-outside-1" maskUnits="userSpaceOnUse" x="0" y="0" width="77" height="89" fill="black">
<rect fill="white" width="77" height="89"/>
<path fill-rule="evenodd" clip-rule="evenodd" d="M47.9994 10.2592C47.9993 7.90621 44.1937 5.9993 39.4995 6C34.8052 6.0007 30.9999 7.90875 31 10.2618L31.0005 19.2024C16.6819 22.4801 6 35.2977 6 50.6102C6 68.4047 20.4253 82.83 38.2198 82.83C56.0143 82.83 70.4395 68.4047 70.4395 50.6102C70.4395 36.2535 61.0495 24.0898 48.0759 19.9259L48.0754 14.2184C48.0754 14.098 48.0496 13.9794 47.9996 13.8633L47.9994 10.2592Z"/>
</mask>
<path fill-rule="evenodd" clip-rule="evenodd" d="M47.9994 10.2592C47.9993 7.90621 44.1937 5.9993 39.4995 6C34.8052 6.0007 30.9999 7.90875 31 10.2618L31.0005 19.2024C16.6819 22.4801 6 35.2977 6 50.6102C6 68.4047 20.4253 82.83 38.2198 82.83C56.0143 82.83 70.4395 68.4047 70.4395 50.6102C70.4395 36.2535 61.0495 24.0898 48.0759 19.9259L48.0754 14.2184C48.0754 14.098 48.0496 13.9794 47.9996 13.8633L47.9994 10.2592Z" fill="#D2B8DF"/>
<path d="M39.4995 6L39.5004 12L39.4995 6ZM47.9994 10.2592L41.9994 10.2596V10.2596L47.9994 10.2592ZM31 10.2618L25 10.2621V10.2621L31 10.2618ZM31.0005 19.2024L32.3394 25.0511L37.0008 23.984L37.0005 19.202L31.0005 19.2024ZM48.0759 19.9259L42.0759 19.9265L42.0764 24.3018L46.2423 25.6389L48.0759 19.9259ZM48.0754 14.2184L54.0754 14.2179V14.2178L48.0754 14.2184ZM47.9996 13.8633L41.9996 13.8636L41.9997 15.0989L42.4878 16.2338L47.9996 13.8633ZM39.5004 12C41.1159 11.9998 42.2818 12.3406 42.8218 12.6112C43.09 12.7456 42.9824 12.7506 42.7462 12.4708C42.4771 12.152 41.9995 11.3879 41.9994 10.2596L53.9994 10.2589C53.9992 5.59307 50.3794 2.97597 48.1977 1.88274C45.6614 0.611808 42.5773 -0.000460148 39.4986 4.76837e-07L39.5004 12ZM37 10.2614C37.0001 11.3896 36.5226 12.1536 36.2538 12.4723C36.0178 12.752 35.9104 12.7468 36.1787 12.6123C36.7189 12.3414 37.8848 12.0002 39.5004 12L39.4986 4.76837e-07C36.4199 0.000460625 33.336 0.613657 30.8 1.88524C28.6187 2.97899 24.9997 5.59672 25 10.2621L37 10.2614ZM37.0005 19.202L37 10.2614L25 10.2621L25.0005 19.2027L37.0005 19.202ZM12 50.6102C12 38.1569 20.6879 27.7182 32.3394 25.0511L29.6617 13.3537C12.6758 17.2419 0 32.4386 0 50.6102H12ZM38.2198 76.83C23.739 76.83 12 65.091 12 50.6102H0C0 71.7184 17.1116 88.83 38.2198 88.83V76.83ZM64.4395 50.6102C64.4395 65.091 52.7006 76.83 38.2198 76.83V88.83C59.328 88.83 76.4395 71.7184 76.4395 50.6102H64.4395ZM46.2423 25.6389C56.8059 29.0293 64.4395 38.9361 64.4395 50.6102H76.4395C76.4395 33.5708 65.2932 19.1504 49.9096 14.2129L46.2423 25.6389ZM42.0754 14.219L42.0759 19.9265L54.0759 19.9253L54.0754 14.2179L42.0754 14.219ZM42.4878 16.2338C42.2424 15.6631 42.0755 14.9782 42.0754 14.219L54.0754 14.2178C54.0753 13.2178 53.8569 12.2958 53.5115 11.4928L42.4878 16.2338ZM41.9994 10.2596L41.9996 13.8636L53.9996 13.8629L53.9994 10.2589L41.9994 10.2596Z" fill="#4B49B8" mask="url(#path-1-outside-1)"/>
<mask id="path-3-outside-2" maskUnits="userSpaceOnUse" x="4" y="4" width="69" height="81" fill="black">
<rect fill="white" x="4" y="4" width="69" height="81"/>
<path fill-rule="evenodd" clip-rule="evenodd" d="M47.9994 10.2592C47.9993 7.90621 44.1937 5.9993 39.4995 6C34.8052 6.0007 30.9999 7.90875 31 10.2618L31.0005 19.2024C16.6819 22.4801 6 35.2977 6 50.6102C6 68.4047 20.4253 82.83 38.2198 82.83C56.0143 82.83 70.4395 68.4047 70.4395 50.6102C70.4395 36.2535 61.0495 24.0898 48.0759 19.9259L48.0754 14.2184C48.0754 14.098 48.0496 13.9794 47.9996 13.8633L47.9994 10.2592Z"/>
</mask>
<path fill-rule="evenodd" clip-rule="evenodd" d="M47.9994 10.2592C47.9993 7.90621 44.1937 5.9993 39.4995 6C34.8052 6.0007 30.9999 7.90875 31 10.2618L31.0005 19.2024C16.6819 22.4801 6 35.2977 6 50.6102C6 68.4047 20.4253 82.83 38.2198 82.83C56.0143 82.83 70.4395 68.4047 70.4395 50.6102C70.4395 36.2535 61.0495 24.0898 48.0759 19.9259L48.0754 14.2184C48.0754 14.098 48.0496 13.9794 47.9996 13.8633L47.9994 10.2592Z" fill="#D2B8DF"/>
<path d="M39.4995 6L39.4998 8L39.4995 6ZM47.9994 10.2592L45.9994 10.2593V10.2593L47.9994 10.2592ZM31 10.2618L29 10.2619V10.2619L31 10.2618ZM31.0005 19.2024L31.4468 21.152L33.0006 20.7963L33.0005 19.2023L31.0005 19.2024ZM48.0759 19.9259L46.0759 19.9261L46.0761 21.3845L47.4647 21.8302L48.0759 19.9259ZM48.0754 14.2184L50.0754 14.2182V14.2182L48.0754 14.2184ZM47.9996 13.8633L45.9996 13.8634L45.9997 14.2752L46.1624 14.6534L47.9996 13.8633ZM39.4998 8C41.6031 7.99969 43.4083 8.431 44.6138 9.03504C45.9375 9.69832 45.9994 10.2459 45.9994 10.2593L49.9994 10.2591C49.9993 7.9195 48.1584 6.33714 46.4057 5.45889C44.5348 4.5214 42.0902 3.99961 39.4992 4L39.4998 8ZM33 10.2616C33 10.2481 33.0621 9.70032 34.3858 9.03661C35.5913 8.43217 37.3965 8.00031 39.4998 8L39.4992 4C36.9082 4.00039 34.4636 4.52291 32.5929 5.46092C30.8404 6.33966 28.9999 7.92241 29 10.2619L33 10.2616ZM33.0005 19.2023L33 10.2616L29 10.2619L29.0005 19.2025L33.0005 19.2023ZM8 50.6102C8 36.2508 18.0172 24.2261 31.4468 21.152L30.5542 17.2528C15.3465 20.734 4 34.3447 4 50.6102H8ZM38.2198 80.83C21.5299 80.83 8 67.3002 8 50.6102H4C4 69.5093 19.3207 84.83 38.2198 84.83V80.83ZM68.4395 50.6102C68.4395 67.3002 54.9097 80.83 38.2198 80.83V84.83C57.1188 84.83 72.4395 69.5093 72.4395 50.6102H68.4395ZM47.4647 21.8302C59.635 25.7363 68.4395 37.1477 68.4395 50.6102H72.4395C72.4395 35.3592 62.4641 22.4434 48.6871 18.0216L47.4647 21.8302ZM46.0754 14.2186L46.0759 19.9261L50.0759 19.9257L50.0754 14.2182L46.0754 14.2186ZM46.1624 14.6534C46.1139 14.5407 46.0754 14.3914 46.0754 14.2186L50.0754 14.2182C50.0754 13.8046 49.9854 13.4182 49.8369 13.0731L46.1624 14.6534ZM45.9994 10.2593L45.9996 13.8634L49.9996 13.8632L49.9994 10.2591L45.9994 10.2593Z" fill="#94A7C3" mask="url(#path-3-outside-2)"/>
<circle cx="38.2394" cy="50.6102" r="32.2198" fill="#E6F1F8"/>
<path d="M38.5197 79C22.2273 79 9.01965 65.9055 9.01965 49.7527C9.01965 49.1206 9.03988 48.4932 9.07972 47.871C14.582 46.0162 25.738 46.1519 37.8255 58.2612C51.4103 71.8705 63.5878 57.5705 68.0003 48.6829C68.0132 49.0379 68.0197 49.3945 68.0197 49.7527C68.0197 65.9055 54.8121 79 38.5197 79Z" fill="#A372CA"/>
<path d="M24.7917 50.4363C22.2167 44.3998 25.6885 33.0767 27.7463 28.1698C17.722 34.8934 7.67218 57.4222 22.6525 63.6952C26.568 65.3347 28.0104 57.982 24.7917 50.4363Z" fill="white" fill-opacity="0.7"/>
<path d="M48.0191 10.2592C48.019 7.90621 44.2134 5.9993 39.5191 6C34.8249 6.0007 31.0195 7.90875 31.0197 10.2618L31.0202 20L48.0197 19.9975L48.0191 10.2592Z" fill="#E6F1F8"/>
<path d="M44.2321 11.9973C46.5583 12.471 48.095 13.2888 48.0951 14.2184L48.0956 20.2833L39.7359 20.2841C41.0484 17.0114 42.5858 14.274 44.2321 11.9973Z" fill="#A0D2F6"/>
<circle cx="43.5197" cy="46.5" r="4.5" fill="#D2B8DF"/>
<circle cx="43.5197" cy="46.5" r="4.5" fill="#D2B8DF"/>
<circle cx="43.5197" cy="46.5" r="4.5" fill="#D2B8DF"/>
<circle cx="36.0197" cy="57" r="3" fill="#D2B8DF"/>
<circle cx="34.0197" cy="44" r="3" fill="#D2B8DF"/>
<circle cx="45.5197" cy="33.5" r="5.5" fill="#D2B8DF"/>
</svg>
