<svg width="94" height="116" viewBox="0 0 94 116" fill="none" xmlns="http://www.w3.org/2000/svg">
<mask id="path-1-outside-1" maskUnits="userSpaceOnUse" x="0" y="0" width="94" height="116" fill="black">
<rect fill="white" width="94" height="116"/>
<path fill-rule="evenodd" clip-rule="evenodd" d="M65.4901 25.9994C69.1475 25.3589 71.043 18 71.043 18L75.8033 24.8386L83.6229 26.7169C83.6229 26.7169 81.3925 30.1154 81.7696 32.7224C82.1952 35.6649 86.1582 39.0882 86.1582 39.0882C86.1582 39.0882 79.4132 35.0939 76.1558 36.9762C72.723 38.9599 72.9891 47.5712 72.9891 47.5712C72.9891 47.5712 70.5631 43.1056 67.7533 41.1462C66.6731 42.9124 64.9365 44.4671 62.2366 45.3159C61.6742 45.4926 61.1354 45.6851 60.6194 45.8905C61.3293 46.4259 61.9681 46.9675 62.5189 47.4956C62.5342 47.5103 62.5494 47.5249 62.5645 47.5395C64.2477 49.1654 65.0903 50.6577 64.5983 51.4367L61.8801 55.7398C66.7546 61.0108 69.8899 67.9139 70.3739 75.5373C70.4174 76.2227 70.4395 76.9139 70.4395 77.6102C70.4395 95.4047 56.0143 109.83 38.2198 109.83C20.4253 109.83 6 95.4047 6 77.6102C6 77.506 6.0005 77.4018 6.00148 77.2978C6.00423 77.0082 6.01081 76.7195 6.02115 76.4317C6.64134 59.1832 20.8198 45.3905 38.2198 45.3905C41.4105 45.3905 44.4929 45.8543 47.4032 46.7181L50.1771 42.327C50.8285 41.2957 53.6141 41.8399 56.8263 43.5021C57.5497 43.1851 58.3216 42.8932 59.1436 42.6348C60.7421 42.1323 62.003 41.3823 62.9898 40.4875C60.738 41.095 58.7499 42.4657 58.7499 42.4657C58.7499 42.4657 58.6031 38.4578 57.1827 36.5102C55.2536 33.8652 49.988 33.6663 49.988 33.6663C49.988 33.6663 55.5455 33.0351 57.0746 30.1614C58.5505 27.3877 56.874 21.3961 56.874 21.3961C56.874 21.3961 62.0789 26.5968 65.4901 25.9994Z"/>
</mask>
<path fill-rule="evenodd" clip-rule="evenodd" d="M65.4901 25.9994C69.1475 25.3589 71.043 18 71.043 18L75.8033 24.8386L83.6229 26.7169C83.6229 26.7169 81.3925 30.1154 81.7696 32.7224C82.1952 35.6649 86.1582 39.0882 86.1582 39.0882C86.1582 39.0882 79.4132 35.0939 76.1558 36.9762C72.723 38.9599 72.9891 47.5712 72.9891 47.5712C72.9891 47.5712 70.5631 43.1056 67.7533 41.1462C66.6731 42.9124 64.9365 44.4671 62.2366 45.3159C61.6742 45.4926 61.1354 45.6851 60.6194 45.8905C61.3293 46.4259 61.9681 46.9675 62.5189 47.4956C62.5342 47.5103 62.5494 47.5249 62.5645 47.5395C64.2477 49.1654 65.0903 50.6577 64.5983 51.4367L61.8801 55.7398C66.7546 61.0108 69.8899 67.9139 70.3739 75.5373C70.4174 76.2227 70.4395 76.9139 70.4395 77.6102C70.4395 95.4047 56.0143 109.83 38.2198 109.83C20.4253 109.83 6 95.4047 6 77.6102C6 77.506 6.0005 77.4018 6.00148 77.2978C6.00423 77.0082 6.01081 76.7195 6.02115 76.4317C6.64134 59.1832 20.8198 45.3905 38.2198 45.3905C41.4105 45.3905 44.4929 45.8543 47.4032 46.7181L50.1771 42.327C50.8285 41.2957 53.6141 41.8399 56.8263 43.5021C57.5497 43.1851 58.3216 42.8932 59.1436 42.6348C60.7421 42.1323 62.003 41.3823 62.9898 40.4875C60.738 41.095 58.7499 42.4657 58.7499 42.4657C58.7499 42.4657 58.6031 38.4578 57.1827 36.5102C55.2536 33.8652 49.988 33.6663 49.988 33.6663C49.988 33.6663 55.5455 33.0351 57.0746 30.1614C58.5505 27.3877 56.874 21.3961 56.874 21.3961C56.874 21.3961 62.0789 26.5968 65.4901 25.9994Z" fill="#1A1A1A"/>
<path d="M71.043 18L75.9674 14.5721L68.495 3.83743L65.2326 16.5034L71.043 18ZM65.4901 25.9994L64.455 20.0893L64.455 20.0893L65.4901 25.9994ZM75.8033 24.8386L70.8789 28.2665L72.1828 30.1396L74.402 30.6727L75.8033 24.8386ZM83.6229 26.7169L88.6391 30.0089L93.3206 22.8755L85.0242 20.8828L83.6229 26.7169ZM81.7696 32.7224L87.7078 31.8635V31.8635L81.7696 32.7224ZM86.1582 39.0882L83.101 44.2509L90.0804 34.5476L86.1582 39.0882ZM76.1558 36.9762L73.1538 31.7812L73.1538 31.7812L76.1558 36.9762ZM72.9891 47.5712L67.7169 50.4354L78.9863 47.3858L72.9891 47.5712ZM67.7533 41.1462L71.1852 36.2246L65.959 32.5802L62.6347 38.0157L67.7533 41.1462ZM62.2366 45.3159L64.036 51.0397L64.036 51.0397L62.2366 45.3159ZM60.6194 45.8905L58.3998 40.3162L48.4935 44.2608L57.0067 50.681L60.6194 45.8905ZM62.5189 47.4956L66.6716 43.1649L66.6713 43.1647L62.5189 47.4956ZM62.5645 47.5395L58.3959 51.8549L58.3959 51.855L62.5645 47.5395ZM64.5983 51.4367L69.671 54.641L69.671 54.641L64.5983 51.4367ZM61.8801 55.7398L56.8074 52.5355L54.3467 56.4309L57.475 59.8136L61.8801 55.7398ZM70.3739 75.5373L76.3619 75.1571L70.3739 75.5373ZM6.00148 77.2978L12.0012 77.3548L6.00148 77.2978ZM6.02115 76.4317L0.0250287 76.2161L6.02115 76.4317ZM47.4032 46.7181L45.6959 52.4701L50.0502 53.7626L52.4759 49.9225L47.4032 46.7181ZM50.1771 42.327L45.1044 39.1225L45.1044 39.1226L50.1771 42.327ZM56.8263 43.5021L54.0688 48.831L56.6121 50.147L59.2348 48.9975L56.8263 43.5021ZM59.1436 42.6348L57.3442 36.911L57.3442 36.911L59.1436 42.6348ZM62.9898 40.4875L67.0201 44.9324L61.4271 34.6946L62.9898 40.4875ZM58.7499 42.4657L52.7539 42.6853L53.1542 53.6116L62.1557 47.4054L58.7499 42.4657ZM57.1827 36.5102L52.335 40.0457L52.335 40.0458L57.1827 36.5102ZM49.988 33.6663L49.3109 27.7046L49.7615 39.662L49.988 33.6663ZM57.0746 30.1614L62.3715 32.9799V32.9799L57.0746 30.1614ZM56.874 21.3961L61.1148 17.1517L44.931 0.981071L51.0959 23.0129L56.874 21.3961ZM71.043 18C65.2326 16.5034 65.2329 16.5022 65.2332 16.501C65.2333 16.5006 65.2336 16.4994 65.2338 16.4987C65.2342 16.4972 65.2346 16.4958 65.2349 16.4946C65.2355 16.4921 65.2361 16.49 65.2365 16.4883C65.2374 16.4849 65.2379 16.4832 65.2379 16.483C65.238 16.4827 65.2364 16.4888 65.2331 16.5008C65.2265 16.5248 65.2134 16.5721 65.1937 16.6396C65.1542 16.7753 65.0898 16.9875 65.0013 17.2512C64.8194 17.7933 64.5602 18.4799 64.2394 19.1413C63.9002 19.8407 63.6007 20.2852 63.4126 20.4972C63.1916 20.7463 63.512 20.2545 64.455 20.0893L66.5251 31.9095C69.2968 31.424 71.2258 29.7722 72.3888 28.4613C73.5848 27.1134 74.4448 25.5981 75.0367 24.3777C75.6469 23.1193 76.0902 21.9262 76.378 21.0685C76.5243 20.6323 76.6366 20.2645 76.715 19.9953C76.7543 19.8603 76.7855 19.7489 76.8084 19.6648C76.8199 19.6228 76.8294 19.5874 76.8369 19.5592C76.8406 19.5452 76.8439 19.5329 76.8466 19.5224C76.848 19.5172 76.8492 19.5124 76.8503 19.5081C76.8509 19.5059 76.8514 19.5039 76.8519 19.502C76.8522 19.501 76.8525 19.4997 76.8526 19.4992C76.853 19.4979 76.8533 19.4966 71.043 18ZM80.7277 21.4108L75.9674 14.5721L66.1185 21.4279L70.8789 28.2665L80.7277 21.4108ZM85.0242 20.8828L77.2046 19.0046L74.402 30.6727L82.2216 32.5509L85.0242 20.8828ZM87.7078 31.8635C87.7535 32.1798 87.6942 32.2628 87.7502 32.0167C87.7999 31.7984 87.9013 31.4935 88.0583 31.1319C88.2101 30.7824 88.3755 30.4677 88.5031 30.242C88.5649 30.1326 88.6131 30.0527 88.6394 30.0099C88.6524 29.9887 88.6596 29.9773 88.66 29.9767C88.6602 29.9764 88.6587 29.9789 88.6552 29.9842C88.6535 29.9868 88.6513 29.9902 88.6486 29.9943C88.6473 29.9964 88.6458 29.9986 88.6443 30.001C88.6435 30.0022 88.6426 30.0035 88.6418 30.0048C88.6413 30.0055 88.6407 30.0065 88.6405 30.0068C88.6398 30.0078 88.6391 30.0089 83.6229 26.7169C78.6067 23.4248 78.606 23.4259 78.6052 23.427C78.605 23.4273 78.6043 23.4284 78.6038 23.4292C78.6028 23.4307 78.6018 23.4323 78.6007 23.4339C78.5986 23.4372 78.5963 23.4406 78.5939 23.4443C78.5891 23.4517 78.5837 23.46 78.5778 23.4692C78.5659 23.4875 78.5519 23.5094 78.5358 23.5346C78.5037 23.585 78.4634 23.6492 78.4162 23.726C78.322 23.8793 78.1988 24.0853 78.0575 24.3352C77.7787 24.8283 77.41 25.5261 77.0513 26.3521C76.4462 27.7455 75.3926 30.5479 75.8314 33.5813L87.7078 31.8635ZM86.1582 39.0882C90.0804 34.5476 90.0812 34.5483 90.082 34.549C90.0822 34.5492 90.083 34.5499 90.0835 34.5503C90.0845 34.5512 90.0854 34.552 90.0863 34.5527C90.088 34.5542 90.0895 34.5556 90.0908 34.5567C90.0934 34.5589 90.0951 34.5604 90.096 34.5612C90.0977 34.5626 90.0959 34.5611 90.091 34.5567C90.0811 34.548 90.0585 34.5279 90.025 34.4974C89.9576 34.4361 89.8483 34.3349 89.7103 34.201C89.4285 33.9276 89.057 33.5469 88.688 33.1145C88.3082 32.6693 88.0063 32.2567 87.8089 31.9205C87.5843 31.5379 87.6602 31.5343 87.7078 31.8635L75.8314 33.5813C76.3093 36.8853 78.456 39.6102 79.559 40.903C80.234 41.6942 80.8798 42.3533 81.3544 42.8137C81.5946 43.0467 81.7982 43.2359 81.9492 43.3733C82.0249 43.4422 82.0879 43.4985 82.1363 43.5413C82.1604 43.5627 82.181 43.5808 82.1977 43.5954C82.2061 43.6027 82.2135 43.6091 82.2199 43.6147C82.2231 43.6175 82.226 43.6201 82.2287 43.6224C82.2301 43.6236 82.2314 43.6247 82.2326 43.6258C82.2332 43.6263 82.2341 43.627 82.2344 43.6273C82.2353 43.628 82.2361 43.6288 86.1582 39.0882ZM79.1578 42.1712C78.4292 42.5923 78.0071 42.4332 78.492 42.482C78.8985 42.5229 79.5278 42.6733 80.3233 42.9634C81.0836 43.2406 81.8044 43.5744 82.3487 43.8493C82.6147 43.9836 82.824 44.0965 82.9578 44.1705C83.0244 44.2073 83.0713 44.234 83.0962 44.2483C83.1086 44.2554 83.1154 44.2594 83.1163 44.2599C83.1168 44.2602 83.1158 44.2596 83.1132 44.2581C83.112 44.2574 83.1103 44.2564 83.1083 44.2552C83.1073 44.2546 83.1062 44.2539 83.1049 44.2532C83.1043 44.2529 83.1034 44.2523 83.1031 44.2521C83.102 44.2515 83.101 44.2509 86.1582 39.0882C89.2155 33.9255 89.2144 33.9249 89.2133 33.9242C89.2129 33.924 89.2117 33.9233 89.2109 33.9228C89.2093 33.9219 89.2076 33.9208 89.2057 33.9197C89.202 33.9176 89.198 33.9152 89.1934 33.9125C89.1844 33.9072 89.1736 33.9009 89.1612 33.8937C89.1364 33.8792 89.105 33.861 89.0672 33.8393C88.9917 33.796 88.8905 33.7387 88.7663 33.67C88.5185 33.5329 88.1754 33.3484 87.7582 33.1377C86.936 32.7225 85.7669 32.1754 84.4338 31.6893C83.1358 31.2161 81.4682 30.7209 79.6938 30.5423C77.9978 30.3716 75.5111 30.4191 73.1538 31.7812L79.1578 42.1712ZM72.9891 47.5712C78.9863 47.3858 78.9863 47.387 78.9863 47.3881C78.9863 47.3884 78.9864 47.3895 78.9864 47.3902C78.9864 47.3915 78.9865 47.3927 78.9865 47.3938C78.9866 47.396 78.9866 47.3977 78.9866 47.3988C78.9867 47.4012 78.9867 47.4016 78.9867 47.4001C78.9866 47.3972 78.9864 47.3867 78.9861 47.3691C78.9854 47.3339 78.9846 47.2706 78.9844 47.1829C78.9839 47.0068 78.9861 46.7365 78.9977 46.3999C79.0212 45.7126 79.0814 44.8174 79.2179 43.9136C79.3604 42.9698 79.5525 42.2479 79.7418 41.7987C79.9686 41.2607 79.9231 41.729 79.1578 42.1712L73.1538 31.7812C70.6721 33.2153 69.3726 35.5039 68.6837 37.1384C67.9575 38.8618 67.5725 40.6646 67.3524 42.1216C67.1264 43.6185 67.0385 45.0002 67.0047 45.9895C66.9875 46.4911 66.9837 46.9091 66.9844 47.2116C66.9848 47.3633 66.9863 47.487 66.9879 47.5789C66.9887 47.6248 66.9895 47.6629 66.9902 47.6927C66.9906 47.7075 66.9909 47.7203 66.9912 47.731C66.9914 47.7363 66.9915 47.7411 66.9916 47.7454C66.9917 47.7475 66.9918 47.7495 66.9918 47.7514C66.9919 47.7523 66.9919 47.7536 66.9919 47.754C66.9919 47.7553 66.992 47.7565 72.9891 47.5712ZM64.3214 46.0678C64.8371 46.4274 65.6565 47.3218 66.5176 48.5458C66.8987 49.0875 67.2133 49.5857 67.4302 49.9447C67.5375 50.1224 67.6179 50.2611 67.6675 50.348C67.6922 50.3913 67.709 50.4214 67.7175 50.4366C67.7217 50.4442 67.7238 50.448 67.7237 50.4479C67.7237 50.4478 67.7231 50.4468 67.722 50.4447C67.7214 50.4437 67.7207 50.4424 67.7199 50.4408C67.7194 50.44 67.719 50.4392 67.7185 50.4383C67.7182 50.4379 67.7178 50.4371 67.7177 50.4369C67.7173 50.4361 67.7169 50.4354 72.9891 47.5712C78.2613 44.7069 78.2609 44.7062 78.2605 44.7053C78.2603 44.705 78.2598 44.7042 78.2595 44.7036C78.2589 44.7024 78.2582 44.7012 78.2575 44.6999C78.2561 44.6973 78.2545 44.6943 78.2527 44.6911C78.2492 44.6848 78.2451 44.6773 78.2404 44.6687C78.231 44.6516 78.2191 44.6301 78.2049 44.6045C78.1764 44.5533 78.1384 44.4855 78.0913 44.4029C77.9972 44.238 77.8661 44.0125 77.7021 43.7409C77.3763 43.2014 76.9088 42.4607 76.3321 41.6411C75.2778 40.1424 73.4793 37.8244 71.1852 36.2246L64.3214 46.0678ZM64.036 51.0397C68.1589 49.7436 71.057 47.2442 72.8719 44.2767L62.6347 38.0157C62.4373 38.3385 62.1952 38.6205 61.8853 38.8651C61.5778 39.1078 61.125 39.3758 60.4372 39.592L64.036 51.0397ZM62.8391 51.4649C63.2173 51.3143 63.616 51.1717 64.036 51.0397L60.4372 39.592C59.7325 39.8136 59.0535 40.0559 58.3998 40.3162L62.8391 51.4649ZM66.6713 43.1647C65.9316 42.4554 65.1095 41.7618 64.2321 41.1001L57.0067 50.681C57.5491 51.09 58.0046 51.4796 58.3665 51.8266L66.6713 43.1647ZM66.7331 43.2241C66.7128 43.2044 66.6923 43.1847 66.6716 43.1649L58.3662 51.8263C58.3761 51.8358 58.386 51.8454 58.3959 51.8549L66.7331 43.2241ZM69.671 54.641C71.7731 51.3131 70.2362 48.0033 69.6904 46.9806C68.9212 45.5393 67.8076 44.262 66.7331 43.2241L58.3959 51.855C59.0047 52.443 59.154 52.7247 59.1038 52.6308C59.0778 52.582 58.8647 52.1854 58.7759 51.5092C58.6798 50.7779 58.7162 49.5138 59.5256 48.2324L69.671 54.641ZM66.9527 58.9442L69.671 54.641L59.5256 48.2323L56.8074 52.5355L66.9527 58.9442ZM76.3619 75.1571C75.7873 66.1077 72.062 57.9127 66.2851 51.6661L57.475 59.8136C61.4473 64.1089 63.9925 69.7201 64.386 75.9175L76.3619 75.1571ZM76.4395 77.6102C76.4395 76.7869 76.4134 75.9689 76.3619 75.1571L64.386 75.9175C64.4215 76.4764 64.4395 77.0408 64.4395 77.6102H76.4395ZM38.2198 115.83C59.328 115.83 76.4395 98.7184 76.4395 77.6102H64.4395C64.4395 92.091 52.7005 103.83 38.2198 103.83V115.83ZM0 77.6102C0 98.7184 17.1116 115.83 38.2198 115.83V103.83C23.739 103.83 12 92.091 12 77.6102H0ZM0.00175428 77.2408C0.000585556 77.3638 0 77.487 0 77.6102H12C12 77.525 12.0004 77.4398 12.0012 77.3548L0.00175428 77.2408ZM0.0250287 76.2161C0.0127826 76.5567 0.00500822 76.8983 0.00175428 77.2408L12.0012 77.3548C12.0035 77.1181 12.0088 76.8822 12.0173 76.6473L0.0250287 76.2161ZM38.2198 39.3905C17.5783 39.3905 0.760847 55.7516 0.0250287 76.2161L12.0173 76.6473C12.5218 62.6148 24.0613 51.3905 38.2198 51.3905V39.3905ZM49.1106 40.9662C45.6519 39.9396 41.9947 39.3905 38.2198 39.3905V51.3905C40.8263 51.3905 43.3339 51.769 45.6959 52.4701L49.1106 40.9662ZM45.1044 39.1226L42.3305 43.5138L52.4759 49.9225L55.2497 45.5313L45.1044 39.1226ZM59.5838 38.1733C57.659 37.1773 55.577 36.3589 53.6171 36.0017C52.6612 35.8275 51.3904 35.6976 50.0403 35.9255C48.7032 36.1512 46.5168 36.8868 45.1044 39.1225L55.2497 45.5314C54.1631 47.2515 52.5691 47.6684 52.038 47.7581C51.4938 47.8499 51.2423 47.7666 51.4657 47.8073C51.8645 47.88 52.7814 48.1648 54.0688 48.831L59.5838 38.1733ZM57.3442 36.911C56.314 37.2349 55.3388 37.6031 54.4178 38.0068L59.2348 48.9975C59.7606 48.7671 60.3292 48.5516 60.943 48.3586L57.3442 36.911ZM58.9595 36.0426C58.6423 36.3303 58.1511 36.6573 57.3442 36.911L60.943 48.3586C63.3332 47.6072 65.3637 46.4343 67.0201 44.9324L58.9595 36.0426ZM58.7499 42.4657C62.1557 47.4054 62.1549 47.4059 62.1541 47.4064C62.1539 47.4066 62.1531 47.4071 62.1526 47.4075C62.1517 47.4081 62.1507 47.4088 62.1498 47.4094C62.1479 47.4107 62.1462 47.4119 62.1446 47.413C62.1413 47.4152 62.1385 47.4172 62.1361 47.4188C62.1313 47.4221 62.1283 47.4241 62.1269 47.4251C62.1241 47.4269 62.1279 47.4243 62.138 47.4177C62.1582 47.4044 62.2025 47.3756 62.2677 47.335C62.3999 47.2526 62.6077 47.1282 62.8669 46.9889C63.4251 46.6887 64.0361 46.4197 64.5525 46.2804L61.4271 34.6946C59.6917 35.1627 58.1827 35.8828 57.1839 36.4199C56.6646 36.6991 56.2347 36.9554 55.9237 37.149C55.7674 37.2464 55.6388 37.3294 55.5415 37.3934C55.4928 37.4255 55.4517 37.4529 55.4187 37.4752C55.4022 37.4863 55.3877 37.4961 55.3753 37.5046C55.369 37.5089 55.3633 37.5128 55.3581 37.5163C55.3555 37.5181 55.3531 37.5198 55.3507 37.5214C55.3496 37.5222 55.3484 37.523 55.3473 37.5237C55.3468 37.5241 55.346 37.5247 55.3457 37.5249C55.3449 37.5254 55.3441 37.5259 58.7499 42.4657ZM52.335 40.0458C52.1832 39.8376 52.2193 39.8088 52.3268 40.1359C52.4209 40.4222 52.5111 40.8012 52.5858 41.2356C52.6585 41.658 52.7028 42.0513 52.7281 42.3381C52.7406 42.4784 52.7478 42.5854 52.7515 42.6482C52.7534 42.6794 52.7544 42.6991 52.7547 42.7059C52.7549 42.7093 52.7549 42.7094 52.7547 42.706C52.7547 42.7043 52.7546 42.7018 52.7544 42.6983C52.7544 42.6966 52.7543 42.6947 52.7542 42.6925C52.7542 42.6914 52.7541 42.6903 52.7541 42.6891C52.754 42.6885 52.754 42.6875 52.754 42.6872C52.754 42.6863 52.7539 42.6853 58.7499 42.4657C64.7459 42.246 64.7458 42.245 64.7458 42.244C64.7458 42.2436 64.7458 42.2426 64.7457 42.2419C64.7457 42.2404 64.7456 42.2389 64.7456 42.2374C64.7454 42.2342 64.7453 42.2308 64.7452 42.2272C64.7449 42.2199 64.7445 42.2115 64.7442 42.2022C64.7434 42.1836 64.7424 42.1609 64.7411 42.1345C64.7386 42.0816 64.735 42.0133 64.7301 41.9311C64.7203 41.7671 64.7049 41.5457 64.6814 41.2799C64.6349 40.7544 64.5537 40.024 64.4121 39.201C64.1766 37.8325 63.614 35.1461 62.0303 32.9747L52.335 40.0458ZM49.988 33.6663C49.7615 39.662 49.7601 39.662 49.7587 39.6619C49.7583 39.6619 49.7569 39.6618 49.756 39.6618C49.7543 39.6617 49.7526 39.6617 49.751 39.6616C49.7478 39.6615 49.7448 39.6614 49.7422 39.6613C49.7369 39.661 49.7328 39.6609 49.7298 39.6607C49.7238 39.6604 49.7223 39.6604 49.7249 39.6605C49.7303 39.6608 49.7521 39.662 49.7885 39.6646C49.8619 39.6699 49.9901 39.6805 50.1583 39.6998C50.5054 39.7395 50.9658 39.8096 51.4385 39.9251C51.9299 40.0451 52.2939 40.1802 52.516 40.2936C52.7573 40.4168 52.5837 40.3868 52.335 40.0457L62.0303 32.9747C59.7356 29.8283 56.0881 28.7079 54.2853 28.2676C53.2005 28.0027 52.2238 27.8578 51.5234 27.7776C51.1678 27.7369 50.8696 27.7113 50.6475 27.6954C50.5361 27.6874 50.4429 27.6818 50.3702 27.6779C50.3338 27.6759 50.3025 27.6744 50.2764 27.6732C50.2634 27.6726 50.2517 27.6721 50.2413 27.6716C50.2362 27.6714 50.2313 27.6712 50.2268 27.6711C50.2246 27.671 50.2224 27.6709 50.2204 27.6708C50.2193 27.6708 50.2178 27.6707 50.2173 27.6707C50.2158 27.6706 50.2144 27.6706 49.988 33.6663ZM51.7778 27.343C52.0521 26.8275 52.3318 26.714 52.1261 26.8435C51.9431 26.9587 51.5989 27.1232 51.0925 27.2888C50.6091 27.4469 50.1262 27.5583 49.7546 27.6293C49.5748 27.6637 49.4356 27.6858 49.3536 27.6979C49.313 27.7039 49.2875 27.7072 49.2795 27.7083C49.2755 27.7088 49.2759 27.7087 49.281 27.7081C49.2836 27.7078 49.2873 27.7074 49.2923 27.7068C49.2947 27.7065 49.2975 27.7062 49.3006 27.7058C49.3022 27.7056 49.3038 27.7054 49.3055 27.7052C49.3064 27.7051 49.3077 27.705 49.3081 27.7049C49.3095 27.7048 49.3109 27.7046 49.988 33.6663C50.665 39.628 50.6665 39.6278 50.6679 39.6276C50.6684 39.6276 50.6699 39.6274 50.6709 39.6273C50.6729 39.6271 50.6751 39.6268 50.6773 39.6266C50.6817 39.6261 50.6866 39.6255 50.6917 39.6249C50.702 39.6237 50.7138 39.6223 50.7269 39.6207C50.7531 39.6175 50.7849 39.6135 50.822 39.6087C50.8961 39.5991 50.9916 39.5861 51.1059 39.5693C51.3338 39.5356 51.6408 39.486 52.0058 39.4162C52.724 39.2791 53.7261 39.0531 54.8233 38.6941C56.5649 38.1244 60.4191 36.649 62.3715 32.9799L51.7778 27.343ZM56.874 21.3961C51.0959 23.0129 51.0956 23.0119 51.0954 23.011C51.0953 23.0107 51.095 23.0098 51.0949 23.0092C51.0946 23.0081 51.0943 23.007 51.094 23.0061C51.0935 23.0041 51.093 23.0025 51.0927 23.0013C51.092 22.9988 51.0917 22.9977 51.0917 22.9978C51.0918 22.9982 51.0934 23.0038 51.0962 23.0144C51.1019 23.0357 51.1127 23.0766 51.1275 23.1351C51.1574 23.2526 51.2027 23.4379 51.255 23.6741C51.3617 24.155 51.4877 24.8035 51.5757 25.4958C51.6665 26.2093 51.6992 26.8343 51.6743 27.3046C51.6449 27.8596 51.5581 27.7559 51.7778 27.343L62.3715 32.9799C63.3291 31.1801 63.5862 29.2873 63.6575 27.9388C63.7334 26.5055 63.6237 25.1125 63.4798 23.9814C63.3332 22.8291 63.1323 21.8063 62.9707 21.0771C62.8889 20.7083 62.8148 20.4038 62.7587 20.1828C62.7306 20.072 62.7068 19.9815 62.6887 19.9136C62.6796 19.8797 62.6719 19.8513 62.6657 19.8288C62.6626 19.8176 62.6599 19.8078 62.6577 19.7995C62.6565 19.7954 62.6555 19.7916 62.6545 19.7883C62.654 19.7866 62.6536 19.785 62.6532 19.7835C62.653 19.7827 62.6527 19.7817 62.6526 19.7813C62.6523 19.7803 62.652 19.7792 56.874 21.3961ZM64.455 20.0893C65.2263 19.9543 65.5143 20.203 65.0142 19.9944C64.6086 19.8253 64.0409 19.5008 63.3743 19.028C62.7341 18.5738 62.1478 18.0869 61.7133 17.703C61.5005 17.515 61.3348 17.3611 61.2291 17.2611C61.1765 17.2113 61.1395 17.1756 61.1198 17.1563C61.1099 17.1467 61.1045 17.1413 61.1036 17.1404C61.1031 17.14 61.1038 17.1407 61.1057 17.1425C61.1066 17.1435 61.1078 17.1447 61.1094 17.1462C61.1101 17.147 61.111 17.1478 61.1119 17.1487C61.1123 17.1492 61.1131 17.1499 61.1133 17.1501C61.1141 17.1509 61.1148 17.1517 56.874 21.3961C52.6331 25.6404 52.6339 25.6413 52.6347 25.6421C52.635 25.6424 52.6359 25.6433 52.6365 25.6439C52.6377 25.6451 52.639 25.6464 52.6404 25.6478C52.6432 25.6506 52.6464 25.6537 52.6498 25.6571C52.6567 25.664 52.6649 25.6721 52.6744 25.6815C52.6934 25.7002 52.7176 25.724 52.7467 25.7523C52.8048 25.809 52.883 25.8844 52.9794 25.9756C53.1717 26.1577 53.4393 26.4055 53.7678 26.6957C54.4158 27.2683 55.344 28.0442 56.4314 28.8155C57.4924 29.5682 58.8655 30.4319 60.3952 31.0699C61.8304 31.6684 64.0483 32.3432 66.5251 31.9095L64.455 20.0893Z" fill="#4DBC8E" mask="url(#path-1-outside-1)"/>
<mask id="path-3-outside-2" maskUnits="userSpaceOnUse" x="4" y="13" width="84" height="99" fill="black">
<rect fill="white" x="4" y="13" width="84" height="99"/>
<path fill-rule="evenodd" clip-rule="evenodd" d="M65.4901 25.9994C69.1475 25.3589 71.043 18 71.043 18L75.8033 24.8386L83.6229 26.7169C83.6229 26.7169 81.3925 30.1154 81.7696 32.7224C82.1952 35.6649 86.1582 39.0882 86.1582 39.0882C86.1582 39.0882 79.4132 35.0939 76.1558 36.9762C72.723 38.9599 72.9891 47.5712 72.9891 47.5712C72.9891 47.5712 70.5631 43.1056 67.7533 41.1462C66.6731 42.9124 64.9365 44.4671 62.2366 45.3159C61.6742 45.4926 61.1354 45.6851 60.6194 45.8905C61.3293 46.4259 61.9681 46.9675 62.5189 47.4956C62.5342 47.5103 62.5494 47.5249 62.5645 47.5395C64.2477 49.1654 65.0903 50.6577 64.5983 51.4367L61.8801 55.7398C66.7546 61.0108 69.8899 67.9139 70.3739 75.5373C70.4174 76.2227 70.4395 76.9139 70.4395 77.6102C70.4395 95.4047 56.0143 109.83 38.2198 109.83C20.4253 109.83 6 95.4047 6 77.6102C6 77.506 6.0005 77.4018 6.00148 77.2978C6.00423 77.0082 6.01081 76.7195 6.02115 76.4317C6.64134 59.1832 20.8198 45.3905 38.2198 45.3905C41.4105 45.3905 44.4929 45.8543 47.4032 46.7181L50.1771 42.327C50.8285 41.2957 53.6141 41.8399 56.8263 43.5021C57.5497 43.1851 58.3216 42.8932 59.1436 42.6348C60.7421 42.1323 62.003 41.3823 62.9898 40.4875C60.738 41.095 58.7499 42.4657 58.7499 42.4657C58.7499 42.4657 58.6031 38.4578 57.1827 36.5102C55.2536 33.8652 49.988 33.6663 49.988 33.6663C49.988 33.6663 55.5455 33.0351 57.0746 30.1614C58.5505 27.3877 56.874 21.3961 56.874 21.3961C56.874 21.3961 62.0789 26.5968 65.4901 25.9994Z"/>
</mask>
<path fill-rule="evenodd" clip-rule="evenodd" d="M65.4901 25.9994C69.1475 25.3589 71.043 18 71.043 18L75.8033 24.8386L83.6229 26.7169C83.6229 26.7169 81.3925 30.1154 81.7696 32.7224C82.1952 35.6649 86.1582 39.0882 86.1582 39.0882C86.1582 39.0882 79.4132 35.0939 76.1558 36.9762C72.723 38.9599 72.9891 47.5712 72.9891 47.5712C72.9891 47.5712 70.5631 43.1056 67.7533 41.1462C66.6731 42.9124 64.9365 44.4671 62.2366 45.3159C61.6742 45.4926 61.1354 45.6851 60.6194 45.8905C61.3293 46.4259 61.9681 46.9675 62.5189 47.4956C62.5342 47.5103 62.5494 47.5249 62.5645 47.5395C64.2477 49.1654 65.0903 50.6577 64.5983 51.4367L61.8801 55.7398C66.7546 61.0108 69.8899 67.9139 70.3739 75.5373C70.4174 76.2227 70.4395 76.9139 70.4395 77.6102C70.4395 95.4047 56.0143 109.83 38.2198 109.83C20.4253 109.83 6 95.4047 6 77.6102C6 77.506 6.0005 77.4018 6.00148 77.2978C6.00423 77.0082 6.01081 76.7195 6.02115 76.4317C6.64134 59.1832 20.8198 45.3905 38.2198 45.3905C41.4105 45.3905 44.4929 45.8543 47.4032 46.7181L50.1771 42.327C50.8285 41.2957 53.6141 41.8399 56.8263 43.5021C57.5497 43.1851 58.3216 42.8932 59.1436 42.6348C60.7421 42.1323 62.003 41.3823 62.9898 40.4875C60.738 41.095 58.7499 42.4657 58.7499 42.4657C58.7499 42.4657 58.6031 38.4578 57.1827 36.5102C55.2536 33.8652 49.988 33.6663 49.988 33.6663C49.988 33.6663 55.5455 33.0351 57.0746 30.1614C58.5505 27.3877 56.874 21.3961 56.874 21.3961C56.874 21.3961 62.0789 26.5968 65.4901 25.9994Z" fill="#1A1A1A"/>
<path d="M71.043 18L72.6844 16.8574L70.1936 13.2791L69.1062 17.5011L71.043 18ZM65.4901 25.9994L65.1451 24.0294V24.0294L65.4901 25.9994ZM75.8033 24.8386L74.1618 25.9812L74.5964 26.6056L75.3362 26.7833L75.8033 24.8386ZM83.6229 26.7169L85.295 27.8142L86.8554 25.4364L84.09 24.7722L83.6229 26.7169ZM81.7696 32.7224L83.749 32.4361V32.4361L81.7696 32.7224ZM86.1582 39.0882L85.1392 40.8091L87.4656 37.5747L86.1582 39.0882ZM76.1558 36.9762L75.1552 35.2446L76.1558 36.9762ZM72.9891 47.5712L71.2317 48.5259L74.9882 47.5094L72.9891 47.5712ZM67.7533 41.1462L68.8973 39.5057L67.1552 38.2909L66.0471 40.1027L67.7533 41.1462ZM62.2366 45.3159L62.8364 47.2238L62.8364 47.2238L62.2366 45.3159ZM60.6194 45.8905L59.8795 44.0324L56.5774 45.3473L59.4152 47.4873L60.6194 45.8905ZM62.5189 47.4956L63.9032 46.0521L63.9031 46.052L62.5189 47.4956ZM62.5645 47.5395L61.175 48.978L61.175 48.978L62.5645 47.5395ZM64.5983 51.4367L66.2892 52.5048L66.2892 52.5048L64.5983 51.4367ZM61.8801 55.7398L60.1892 54.6717L59.3689 55.9702L60.4117 57.0978L61.8801 55.7398ZM70.3739 75.5373L72.3699 75.4106L70.3739 75.5373ZM6.00148 77.2978L8.00139 77.3168L6.00148 77.2978ZM6.02115 76.4317L4.02245 76.3598L6.02115 76.4317ZM47.4032 46.7181L46.8341 48.6355L48.2855 49.0663L49.0941 47.7863L47.4032 46.7181ZM50.1771 42.327L48.4862 41.2588L48.4862 41.2589L50.1771 42.327ZM56.8263 43.5021L55.9072 45.2784L56.7549 45.7171L57.6291 45.3339L56.8263 43.5021ZM59.1436 42.6348L58.5438 40.7269H58.5438L59.1436 42.6348ZM62.9898 40.4875L64.3332 41.9691L62.4689 38.5565L62.9898 40.4875ZM58.7499 42.4657L56.7512 42.5389L56.8847 46.181L59.8852 44.1122L58.7499 42.4657ZM57.1827 36.5102L55.5668 37.6887L55.5668 37.6887L57.1827 36.5102ZM49.988 33.6663L49.7623 31.6791L49.9125 35.6649L49.988 33.6663ZM57.0746 30.1614L58.8402 31.1009V31.1009L57.0746 30.1614ZM56.874 21.3961L58.2876 19.9813L52.893 14.5911L54.9479 21.935L56.874 21.3961ZM71.043 18C69.1062 17.5011 69.1063 17.5007 69.1064 17.5004C69.1064 17.5003 69.1065 17.5 69.1065 17.4998C69.1066 17.4994 69.1067 17.4992 69.1067 17.4991C69.1068 17.4988 69.1067 17.499 69.1066 17.4996C69.1062 17.5009 69.1055 17.5038 69.1042 17.5084C69.1018 17.5176 69.0976 17.5334 69.0915 17.5555C69.0795 17.5995 69.0604 17.6682 69.0342 17.7582C68.9817 17.9384 68.9013 18.2024 68.7935 18.5236C68.5763 19.1709 68.2558 20.0264 67.8385 20.8868C67.4151 21.7598 66.9287 22.5613 66.4047 23.1519C65.8696 23.7549 65.4403 23.9777 65.1451 24.0294L65.8351 27.9694C67.3686 27.7009 68.5477 26.7636 69.3967 25.8066C70.2567 24.8373 70.93 23.679 71.4376 22.6322C71.9514 21.5729 72.3333 20.5485 72.5858 19.7961C72.7128 19.4173 72.8091 19.1015 72.8746 18.8767C72.9073 18.7642 72.9325 18.6742 72.95 18.6101C72.9588 18.5781 72.9656 18.5525 72.9706 18.5338C72.973 18.5245 72.9751 18.5169 72.9766 18.511C72.9773 18.5081 72.978 18.5056 72.9785 18.5036C72.9788 18.5026 72.979 18.5017 72.9792 18.5009C72.9793 18.5005 72.9794 18.5 72.9795 18.4998C72.9796 18.4993 72.9797 18.4989 71.043 18ZM77.4447 23.696L72.6844 16.8574L69.4015 19.1426L74.1618 25.9812L77.4447 23.696ZM84.09 24.7722L76.2704 22.8939L75.3362 26.7833L83.1558 28.6615L84.09 24.7722ZM83.749 32.4361C83.6438 31.7093 83.9104 30.6415 84.3893 29.5386C84.6101 29.0303 84.8432 28.5879 85.0212 28.2731C85.1096 28.1168 85.1827 27.9949 85.2316 27.9153C85.2561 27.8756 85.2743 27.8466 85.2853 27.8293C85.2908 27.8207 85.2944 27.8151 85.2961 27.8125C85.2969 27.8112 85.2972 27.8107 85.2971 27.811C85.297 27.8111 85.2968 27.8115 85.2964 27.812C85.2962 27.8123 85.296 27.8126 85.2958 27.8129C85.2957 27.8131 85.2955 27.8134 85.2954 27.8135C85.2952 27.8139 85.295 27.8142 83.6229 26.7169C81.9508 25.6195 81.9506 25.6199 81.9503 25.6202C81.9502 25.6204 81.95 25.6208 81.9498 25.6211C81.9494 25.6216 81.949 25.6223 81.9486 25.623C81.9477 25.6243 81.9466 25.6259 81.9455 25.6277C81.9432 25.6312 81.9403 25.6356 81.9369 25.6409C81.9302 25.6513 81.9213 25.6651 81.9106 25.682C81.889 25.7158 81.8598 25.7624 81.8239 25.8207C81.7524 25.9371 81.6542 26.1011 81.5394 26.3041C81.3109 26.7081 81.01 27.2782 80.7203 27.9454C80.1783 29.1935 79.5182 31.1286 79.7902 33.0087L83.749 32.4361ZM86.1582 39.0882C87.4656 37.5747 87.4659 37.5749 87.4661 37.5751C87.4662 37.5752 87.4664 37.5754 87.4665 37.5755C87.4668 37.5757 87.467 37.5758 87.4671 37.576C87.4674 37.5762 87.4674 37.5762 87.4672 37.576C87.4668 37.5757 87.4655 37.5745 87.4632 37.5726C87.4588 37.5687 87.4508 37.5617 87.4394 37.5516C87.4167 37.5315 87.3806 37.4993 87.3331 37.456C87.2378 37.3694 87.0971 37.2388 86.925 37.0719C86.579 36.7361 86.116 36.2627 85.645 35.7107C84.6207 34.5101 83.8734 33.2965 83.749 32.4361L79.7902 33.0087C80.0913 35.0909 81.5384 37.0601 82.602 38.3068C83.175 38.9784 83.7294 39.5447 84.1397 39.9428C84.3458 40.1428 84.518 40.3026 84.6412 40.4147C84.7028 40.4707 84.7523 40.515 84.7878 40.5465C84.8056 40.5622 84.8199 40.5747 84.8305 40.584C84.8358 40.5886 84.8401 40.5924 84.8435 40.5954C84.8452 40.5969 84.8467 40.5981 84.8479 40.5992C84.8485 40.5997 84.8491 40.6002 84.8496 40.6006C84.8498 40.6008 84.8501 40.6011 84.8503 40.6012C84.8506 40.6015 84.8509 40.6017 86.1582 39.0882ZM77.1565 38.7079C77.4565 38.5345 78.004 38.4126 78.8926 38.5021C79.755 38.5889 80.7305 38.8543 81.6934 39.2054C82.6447 39.5522 83.5149 39.9571 84.1518 40.2788C84.4683 40.4386 84.7222 40.5753 84.894 40.6703C84.9798 40.7178 85.0448 40.7547 85.0865 40.7786C85.1074 40.7906 85.1224 40.7993 85.1313 40.8045C85.1357 40.8071 85.1386 40.8088 85.14 40.8096C85.1406 40.81 85.1409 40.8101 85.1408 40.81C85.1407 40.81 85.1405 40.8099 85.1403 40.8097C85.1401 40.8097 85.1399 40.8095 85.1398 40.8095C85.1395 40.8093 85.1392 40.8091 86.1582 39.0882C87.1773 37.3673 87.1769 37.3671 87.1765 37.3668C87.1764 37.3667 87.1759 37.3665 87.1756 37.3663C87.1749 37.3659 87.1741 37.3654 87.1732 37.3649C87.1715 37.3638 87.1693 37.3626 87.1667 37.361C87.1615 37.358 87.1547 37.354 87.1463 37.3491C87.1294 37.3393 87.1062 37.3258 87.0769 37.309C87.0182 37.2753 86.9351 37.2282 86.8301 37.1701C86.6203 37.0541 86.3218 36.8935 85.955 36.7082C85.2254 36.3398 84.2058 35.8638 83.0636 35.4474C81.9332 35.0352 80.6116 34.6549 79.2932 34.5222C78.0009 34.3921 76.4838 34.4768 75.1552 35.2446L77.1565 38.7079ZM72.9891 47.5712C74.9882 47.5094 74.9882 47.5098 74.9882 47.5101C74.9882 47.5101 74.9882 47.5104 74.9882 47.5106C74.9882 47.5109 74.9882 47.511 74.9882 47.511C74.9882 47.511 74.9882 47.5105 74.9882 47.5096C74.9881 47.5076 74.988 47.5036 74.9879 47.4976C74.9876 47.4858 74.9871 47.4661 74.9867 47.439C74.9857 47.3849 74.9846 47.3015 74.9844 47.1925C74.9839 46.9742 74.9866 46.6547 75 46.2631C75.027 45.4751 75.0964 44.4178 75.2627 43.3162C75.4311 42.2014 75.6875 41.1192 76.0558 40.2453C76.4366 39.3418 76.8394 38.8911 77.1565 38.7079L75.1552 35.2446C73.7558 36.0532 72.9046 37.4228 72.3698 38.6918C71.8225 39.9905 71.5018 41.433 71.3076 42.7189C71.1114 44.0181 71.0328 45.2376 71.0023 46.1263C70.9871 46.5729 70.9838 46.9417 70.9844 47.2021C70.9847 47.3324 70.986 47.4359 70.9873 47.5089C70.9879 47.5454 70.9885 47.5743 70.9891 47.5952C70.9893 47.6056 70.9895 47.614 70.9897 47.6203C70.9898 47.6234 70.9899 47.6261 70.9899 47.6282C70.99 47.6292 70.99 47.6302 70.99 47.631C70.99 47.6314 70.99 47.6319 70.9901 47.6321C70.9901 47.6325 70.9901 47.6329 72.9891 47.5712ZM66.6093 42.7867C67.7178 43.5597 68.8636 44.9287 69.7891 46.2442C70.2354 46.8786 70.601 47.4576 70.8542 47.8768C70.9804 48.0858 71.0777 48.2534 71.1421 48.3663C71.1743 48.4227 71.1982 48.4654 71.2133 48.4926C71.2208 48.5062 71.2262 48.5159 71.2293 48.5215C71.2308 48.5243 71.2318 48.5261 71.2322 48.5269C71.2324 48.5272 71.2325 48.5273 71.2324 48.5272C71.2324 48.5271 71.2323 48.527 71.2322 48.5267C71.2321 48.5266 71.232 48.5264 71.232 48.5264C71.2318 48.5262 71.2317 48.5259 72.9891 47.5712C74.7465 46.6164 74.7464 46.6162 74.7462 46.6159C74.7461 46.6157 74.746 46.6154 74.7458 46.6152C74.7456 46.6147 74.7453 46.6142 74.7449 46.6135C74.7443 46.6123 74.7434 46.6108 74.7425 46.609C74.7405 46.6054 74.738 46.6008 74.7349 46.5951C74.7286 46.5837 74.72 46.5681 74.7091 46.5485C74.6873 46.5093 74.6563 46.4541 74.6167 46.3846C74.5375 46.2457 74.4233 46.0491 74.2781 45.8088C73.9886 45.3295 73.5721 44.6696 73.0606 43.9426C72.0707 42.5355 70.5986 40.692 68.8973 39.5057L66.6093 42.7867ZM62.8364 47.2238C66.0107 46.2259 68.1344 44.3563 69.4595 42.1897L66.0471 40.1027C65.2118 41.4684 63.8624 42.7082 61.6368 43.4079L62.8364 47.2238ZM61.3593 47.7486C61.8293 47.5615 62.3215 47.3857 62.8364 47.2238L61.6368 43.4079C61.027 43.5996 60.4414 43.8087 59.8795 44.0324L61.3593 47.7486ZM63.9031 46.052C63.2893 45.4635 62.5894 44.8712 61.8237 44.2937L59.4152 47.4873C60.0692 47.9806 60.6469 48.4715 61.1348 48.9393L63.9031 46.052ZM63.954 46.101C63.9372 46.0847 63.9202 46.0684 63.9032 46.0521L61.1347 48.9392C61.1482 48.9521 61.1616 48.9651 61.175 48.978L63.954 46.101ZM66.2892 52.5048C67.1539 51.1358 66.5832 49.654 66.1616 48.864C65.6654 47.9345 64.8733 46.989 63.954 46.101L61.175 48.978C61.939 49.716 62.4097 50.3296 62.6327 50.7474C62.7439 50.9557 62.7474 51.0304 62.7418 50.9883C62.7339 50.9277 62.7196 50.6659 62.9074 50.3686L66.2892 52.5048ZM63.571 56.808L66.2892 52.5048L62.9074 50.3686L60.1892 54.6717L63.571 56.808ZM72.3699 75.4106C71.8557 67.3118 68.5238 59.9781 63.3484 54.3819L60.4117 57.0978C64.9855 62.0435 67.9241 68.5159 68.3779 75.6641L72.3699 75.4106ZM72.4395 77.6102C72.4395 76.8716 72.4161 76.1381 72.3699 75.4106L68.3779 75.6641C68.4188 76.3073 68.4395 76.9562 68.4395 77.6102H72.4395ZM38.2198 111.83C57.1188 111.83 72.4395 96.5093 72.4395 77.6102H68.4395C68.4395 94.3002 54.9097 107.83 38.2198 107.83V111.83ZM4 77.6102C4 96.5093 19.3207 111.83 38.2198 111.83V107.83C21.5299 107.83 8 94.3002 8 77.6102H4ZM4.00157 77.2788C4.00053 77.3892 4 77.4996 4 77.6102H8C8 77.5123 8.00047 77.4145 8.00139 77.3168L4.00157 77.2788ZM4.02245 76.3598C4.01147 76.6652 4.00449 76.9715 4.00157 77.2788L8.00139 77.3168C8.00398 77.0448 8.01015 76.7737 8.01986 76.5036L4.02245 76.3598ZM38.2198 43.3905C19.7393 43.3905 4.68117 58.0393 4.02245 76.3598L8.01986 76.5036C8.6015 60.327 21.9003 47.3905 38.2198 47.3905V43.3905ZM47.9723 44.8008C44.8792 43.8827 41.6052 43.3905 38.2198 43.3905V47.3905C41.2158 47.3905 44.1066 47.8258 46.8341 48.6355L47.9723 44.8008ZM48.4862 41.2589L45.7123 45.65L49.0941 47.7863L51.868 43.3951L48.4862 41.2589ZM57.7455 41.7259C56.0331 40.8398 54.3395 40.1992 52.9 39.9369C52.1882 39.8072 51.4248 39.7484 50.7062 39.8697C49.9919 39.9903 49.0655 40.3417 48.4862 41.2588L51.8679 43.3951C51.6143 43.7966 51.2805 43.8293 51.3721 43.8139C51.4593 43.7992 51.7152 43.7869 52.1828 43.8721C53.102 44.0396 54.4073 44.5023 55.9072 45.2784L57.7455 41.7259ZM58.5438 40.7269C57.6524 41.0071 56.8128 41.3244 56.0235 41.6704L57.6291 45.3339C58.2867 45.0457 58.9908 44.7794 59.7434 44.5428L58.5438 40.7269ZM61.6464 39.0059C60.8827 39.6983 59.8784 40.3073 58.5438 40.7269L59.7434 44.5428C61.6058 43.9573 63.1232 43.0663 64.3332 41.9691L61.6464 39.0059ZM58.7499 42.4657C59.8852 44.1122 59.8849 44.1124 59.8847 44.1126C59.8846 44.1126 59.8844 44.1128 59.8842 44.1129C59.8839 44.1131 59.8837 44.1133 59.8834 44.1134C59.883 44.1137 59.8826 44.114 59.8824 44.1141C59.882 44.1144 59.882 44.1144 59.8825 44.1141C59.8834 44.1134 59.8862 44.1115 59.8908 44.1084C59.9 44.1023 59.9162 44.0914 59.9391 44.0763C59.9851 44.0461 60.0575 43.9992 60.1531 43.9397C60.3448 43.8202 60.6267 43.6519 60.9726 43.4659C61.6777 43.0867 62.588 42.6674 63.5107 42.4185L62.4689 38.5565C61.1398 38.9151 59.9302 39.4848 59.0782 39.9429C58.6456 40.1755 58.2898 40.3878 58.0384 40.5443C57.9124 40.6228 57.8119 40.6877 57.7403 40.7349C57.7045 40.7584 57.6758 40.7776 57.6548 40.7918C57.6442 40.7989 57.6356 40.8048 57.6289 40.8093C57.6255 40.8116 57.6227 40.8136 57.6203 40.8152C57.6191 40.816 57.618 40.8168 57.6171 40.8174C57.6166 40.8177 57.6162 40.818 57.6158 40.8183C57.6156 40.8185 57.6153 40.8186 57.6152 40.8187C57.6149 40.8189 57.6147 40.8191 58.7499 42.4657ZM55.5668 37.6887C55.9858 38.2633 56.3207 39.353 56.5279 40.5574C56.6235 41.1133 56.6801 41.619 56.7126 41.9854C56.7287 42.1675 56.7386 42.3126 56.7444 42.4092C56.7473 42.4574 56.7491 42.4933 56.7502 42.5154C56.7507 42.5265 56.751 42.5341 56.7512 42.5381C56.7513 42.5401 56.7513 42.5411 56.7513 42.5413C56.7513 42.5413 56.7513 42.5412 56.7513 42.5408C56.7513 42.5406 56.7513 42.5403 56.7513 42.54C56.7513 42.5398 56.7513 42.5396 56.7513 42.5395C56.7513 42.5392 56.7512 42.5389 58.7499 42.4657C60.7486 42.3924 60.7486 42.3921 60.7485 42.3917C60.7485 42.3916 60.7485 42.3912 60.7485 42.3909C60.7485 42.3904 60.7485 42.3898 60.7484 42.3891C60.7484 42.3877 60.7483 42.3861 60.7482 42.3842C60.7481 42.3805 60.7479 42.3758 60.7477 42.3701C60.7472 42.3588 60.7465 42.3437 60.7456 42.3249C60.7439 42.2874 60.7411 42.2353 60.7372 42.1701C60.7295 42.0399 60.7168 41.8566 60.697 41.6326C60.6575 41.1867 60.5886 40.5687 60.47 39.8792C60.2487 38.5928 59.7999 36.7047 58.7986 35.3317L55.5668 37.6887ZM49.988 33.6663C49.9125 35.6649 49.912 35.6649 49.9116 35.6648C49.9115 35.6648 49.911 35.6648 49.9108 35.6648C49.9103 35.6648 49.9099 35.6648 49.9096 35.6648C49.909 35.6647 49.9086 35.6647 49.9086 35.6647C49.9085 35.6647 49.9097 35.6648 49.912 35.6649C49.9167 35.6651 49.9261 35.6655 49.94 35.6663C49.9678 35.6678 50.0134 35.6705 50.0748 35.6749C50.1978 35.6837 50.3827 35.6993 50.6133 35.7257C51.0782 35.7789 51.7107 35.874 52.3874 36.0393C53.8632 36.3997 55.0456 36.9742 55.5668 37.6887L58.7986 35.3317C57.3906 33.4012 54.9756 32.5538 53.3363 32.1535C52.4556 31.9384 51.651 31.8184 51.0684 31.7517C50.7752 31.7181 50.5337 31.6975 50.3611 31.6851C50.2748 31.6789 50.2054 31.6748 50.1551 31.6721C50.13 31.6707 50.1096 31.6697 50.0942 31.669C50.0865 31.6687 50.0801 31.6684 50.075 31.6682C50.0724 31.6681 50.0701 31.668 50.0682 31.6679C50.0673 31.6679 50.0664 31.6678 50.0656 31.6678C50.0652 31.6678 50.0646 31.6678 50.0644 31.6678C50.0639 31.6677 50.0634 31.6677 49.988 33.6663ZM55.309 29.2219C54.9404 29.9147 53.8629 30.5912 52.3361 31.0906C51.6481 31.3156 50.9922 31.4652 50.505 31.5583C50.2634 31.6044 50.0683 31.6357 49.9377 31.655C49.8725 31.6646 49.8237 31.6712 49.7936 31.6751C49.7786 31.6771 49.7683 31.6783 49.763 31.679C49.7603 31.6793 49.7589 31.6795 49.7587 31.6795C49.7587 31.6795 49.7589 31.6795 49.7595 31.6794C49.7598 31.6794 49.7602 31.6793 49.7606 31.6793C49.7609 31.6792 49.7613 31.6792 49.7614 31.6792C49.7618 31.6791 49.7623 31.6791 49.988 33.6663C50.2136 35.6535 50.2141 35.6535 50.2146 35.6534C50.2148 35.6534 50.2154 35.6533 50.2158 35.6533C50.2166 35.6532 50.2174 35.6531 50.2184 35.653C50.2203 35.6528 50.2226 35.6525 50.2252 35.6522C50.2304 35.6516 50.237 35.6508 50.2449 35.6498C50.2607 35.6479 50.2818 35.6453 50.3078 35.6419C50.3599 35.6352 50.432 35.6254 50.5218 35.6121C50.7011 35.5857 50.9521 35.5452 51.2554 35.4873C51.8581 35.3722 52.6871 35.1843 53.5797 34.8924C55.2139 34.3578 57.6798 33.2818 58.8402 31.1009L55.309 29.2219ZM56.874 21.3961C54.9479 21.935 54.9478 21.9347 54.9478 21.9344C54.9478 21.9344 54.9477 21.9341 54.9476 21.934C54.9476 21.9337 54.9475 21.9335 54.9475 21.9335C54.9475 21.9333 54.9475 21.9335 54.9477 21.934C54.948 21.9351 54.9487 21.9376 54.9497 21.9415C54.9518 21.9492 54.9554 21.9624 54.9603 21.9808C54.9702 22.0176 54.9853 22.0751 55.0046 22.151C55.0432 22.303 55.0981 22.528 55.1603 22.8084C55.2852 23.3721 55.4362 24.1454 55.5437 24.991C55.6522 25.8437 55.7106 26.7247 55.6687 27.516C55.6253 28.3355 55.4818 28.8973 55.309 29.2219L58.8402 31.1009C59.4054 30.0387 59.6058 28.8114 59.6631 27.7274C59.722 26.6151 59.6379 25.4781 59.5118 24.4862C59.3847 23.4872 59.2087 22.5892 59.0655 21.9428C58.9935 21.6181 58.929 21.3534 58.8816 21.1669C58.8579 21.0735 58.8385 20.9996 58.8245 20.9472C58.8175 20.9211 58.8119 20.9003 58.8077 20.8852C58.8056 20.8776 58.804 20.8715 58.8027 20.8668C58.802 20.8645 58.8015 20.8625 58.801 20.8609C58.8008 20.8601 58.8006 20.8593 58.8004 20.8587C58.8003 20.8584 58.8002 20.858 58.8002 20.8579C58.8001 20.8575 58.8 20.8571 56.874 21.3961ZM65.1451 24.0294C64.8336 24.0839 64.2864 24.0248 63.4746 23.6863C62.6943 23.3608 61.8581 22.8566 61.06 22.2905C60.2707 21.7306 59.5705 21.1473 59.0648 20.7006C58.8134 20.4785 58.6138 20.2933 58.4792 20.166C58.412 20.1023 58.3613 20.0534 58.3288 20.0217C58.3125 20.0058 58.3008 19.9943 58.2938 19.9875C58.2904 19.984 58.2881 19.9818 58.287 19.9807C58.2865 19.9802 58.2863 19.98 58.2864 19.9801C58.2864 19.9801 58.2866 19.9802 58.2868 19.9804C58.2869 19.9805 58.2871 19.9807 58.2871 19.9808C58.2873 19.981 58.2876 19.9813 56.874 21.3961C55.4603 22.8109 55.4606 22.8111 55.4609 22.8115C55.461 22.8116 55.4614 22.8119 55.4616 22.8122C55.4621 22.8127 55.4627 22.8133 55.4634 22.8139C55.4648 22.8153 55.4664 22.817 55.4684 22.8189C55.4724 22.8229 55.4776 22.8281 55.4841 22.8345C55.4971 22.8473 55.515 22.8649 55.5377 22.887C55.5831 22.9312 55.6475 22.9933 55.7293 23.0708C55.8927 23.2255 56.1264 23.442 56.4163 23.6981C56.9931 24.2078 57.8073 24.8874 58.7457 25.553C59.6752 26.2124 60.7799 26.8964 61.9349 27.3781C63.0584 27.8466 64.441 28.2136 65.8351 27.9694L65.1451 24.0294Z" fill="#94A7C3" mask="url(#path-3-outside-2)"/>
<path d="M65.4901 25.9994C69.1475 25.3589 71.0429 18 71.0429 18L75.8033 24.8386L83.6229 26.7169C83.6229 26.7169 81.3925 30.1154 81.7696 32.7224C82.1952 35.6649 86.1582 39.0882 86.1582 39.0882C86.1582 39.0882 79.4132 35.0939 76.1558 36.9762C72.723 38.9599 72.9891 47.5712 72.9891 47.5712C72.9891 47.5712 69.6487 41.4223 66.2674 40.3893C63.1451 39.4353 58.7499 42.4657 58.7499 42.4657C58.7499 42.4657 58.6031 38.4578 57.1827 36.5102C55.2535 33.8652 49.9879 33.6663 49.9879 33.6663C49.9879 33.6663 55.5455 33.0351 57.0746 30.1614C58.5505 27.3877 56.8739 21.3961 56.8739 21.3961C56.8739 21.3961 62.0789 26.5968 65.4901 25.9994Z" fill="#FCBA43"/>
<path d="M66.0881 30.5285L69.1811 33.2095C69.7472 36.3393 69.1509 43.1422 62.2366 45.3159C55.3223 47.4895 51.9549 52.0294 51.1355 54.0276L48.0426 51.3466C48.862 49.3484 52.2293 44.8085 59.1436 42.6348C66.0579 40.4612 66.6542 33.6582 66.0881 30.5285Z" fill="#E2485B"/>
<circle cx="38.2198" cy="77.6102" r="32.2198" fill="#333333"/>
<path d="M38.2198 109.83C56.0143 109.83 70.4395 95.4047 70.4395 77.6102C70.4395 76.9139 70.4175 76.2227 70.3739 75.5373C64.3643 73.494 52.1798 73.6435 38.9779 86.9835C24.1406 101.976 10.8404 86.2225 6.02115 76.4317C6.00709 76.8228 6 77.2157 6 77.6102C6 95.4047 20.4253 109.83 38.2198 109.83Z" fill="#1A1A1A"/>
<path d="M25.8633 61.4382C21.0315 62.3555 15.4337 69.243 13.2387 72.5721C13.2387 63.5265 23.0647 47.8674 33.2222 54.5721C35.8771 56.3245 31.9031 60.2916 25.8633 61.4382Z" fill="#808080"/>
<path d="M64.5983 51.4367C65.3809 50.1977 62.7871 47.1541 58.8047 44.6385C54.8224 42.123 50.9597 41.088 50.1771 42.327L46.938 47.4545L61.3593 56.5642L64.5983 51.4367Z" fill="#333333"/>
<path d="M62.5189 47.4956C64.2325 49.1385 65.0948 50.6507 64.5983 51.4367L61.3593 56.5642L54.2916 52.0997C57.1492 50.034 59.9112 48.541 62.5189 47.4956Z" fill="#1A1A1A"/>
</svg>
