<svg width="101" height="118" viewBox="0 0 101 118" fill="none" xmlns="http://www.w3.org/2000/svg">
<mask id="path-1-outside-1" maskUnits="userSpaceOnUse" x="10.4913" y="0.830887" width="85" height="112" fill="black">
<rect fill="white" x="10.4913" y="0.830887" width="85" height="112"/>
<path fill-rule="evenodd" clip-rule="evenodd" d="M82.3784 12.7668L78.1854 9.83089L73.3812 16.692L74.8424 17.7152L62.1711 34.5946L49.7194 25.8759L44.4838 28.0798L44.2034 33.7535L59.9587 44.7854L75.7139 55.8174L80.9496 53.6134L81.2299 47.9398L68.7781 39.221L80.3059 21.5407L81.767 22.5639L86.5713 15.7027L82.3784 12.7668ZM59.9586 44.7856L53.4786 40.2483L17.4913 91.6434L18.2329 104.376L30.4512 100.718L66.4385 49.3229L59.9586 44.7856Z"/>
</mask>
<path fill-rule="evenodd" clip-rule="evenodd" d="M82.3784 12.7668L78.1854 9.83089L73.3812 16.692L74.8424 17.7152L62.1711 34.5946L49.7194 25.8759L44.4838 28.0798L44.2034 33.7535L59.9587 44.7854L75.7139 55.8174L80.9496 53.6134L81.2299 47.9398L68.7781 39.221L80.3059 21.5407L81.767 22.5639L86.5713 15.7027L82.3784 12.7668ZM59.9586 44.7856L53.4786 40.2483L17.4913 91.6434L18.2329 104.376L30.4512 100.718L66.4385 49.3229L59.9586 44.7856Z" fill="white"/>
<path d="M78.1854 9.83089L81.6269 4.91597L76.712 1.47452L73.2705 6.38943L78.1854 9.83089ZM82.3784 12.7668L85.8198 7.85191L85.8198 7.8519L82.3784 12.7668ZM73.3812 16.692L68.4663 13.2506L65.0248 18.1655L69.9397 21.607L73.3812 16.692ZM74.8424 17.7152L79.6408 21.3173L83.364 16.3575L78.2838 12.8003L74.8424 17.7152ZM62.1711 34.5946L58.7297 39.5096L63.4846 42.839L66.9695 38.1968L62.1711 34.5946ZM49.7194 25.8759L53.1609 20.9609L50.4461 19.06L47.3915 20.3458L49.7194 25.8759ZM44.4838 28.0798L42.1559 22.5498L38.6773 24.0141L38.4911 27.7837L44.4838 28.0798ZM44.2034 33.7535L38.2107 33.4574L38.0472 36.7675L40.762 38.6684L44.2034 33.7535ZM59.9587 44.7854L63.4001 39.8705L63.4001 39.8705L59.9587 44.7854ZM75.7139 55.8174L72.2725 60.7323L74.9873 62.6332L78.0418 61.3474L75.7139 55.8174ZM80.9496 53.6134L83.2774 59.1435L86.756 57.6791L86.9422 53.9095L80.9496 53.6134ZM81.2299 47.9398L87.2226 48.2359L87.3862 44.9258L84.6713 43.0248L81.2299 47.9398ZM68.7781 39.221L63.7521 35.944L60.5817 40.8065L65.3367 44.1359L68.7781 39.221ZM80.3059 21.5407L83.7477 16.626L78.6674 13.0682L75.2799 18.2637L80.3059 21.5407ZM81.767 22.5639L78.3253 27.4786L83.2403 30.9206L86.6819 26.0054L81.767 22.5639ZM86.5713 15.7027L91.4862 19.1442L94.9276 14.2293L90.0127 10.7878L86.5713 15.7027ZM53.4786 40.2483L56.9201 35.3333L52.0051 31.8919L48.5637 36.8068L53.4786 40.2483ZM59.9586 44.7856L63.4001 39.8707L63.4 39.8707L59.9586 44.7856ZM17.4913 91.6434L12.5764 88.202L11.3802 89.9103L11.5015 91.9923L17.4913 91.6434ZM18.2329 104.376L12.243 104.725L12.6843 112.3L19.9537 110.124L18.2329 104.376ZM30.4512 100.718L32.1721 106.466L34.17 105.868L35.3662 104.16L30.4512 100.718ZM66.4385 49.3229L71.3535 52.7644L74.7949 47.8495L69.88 44.408L66.4385 49.3229ZM74.744 14.7458L78.9369 17.6817L85.8198 7.8519L81.6269 4.91597L74.744 14.7458ZM78.2961 20.1335L83.1003 13.2723L73.2705 6.38943L68.4663 13.2506L78.2961 20.1335ZM78.2838 12.8003L76.8227 11.7771L69.9397 21.607L71.4009 22.6301L78.2838 12.8003ZM66.9695 38.1968L79.6408 21.3173L70.0439 14.1131L57.3727 30.9925L66.9695 38.1968ZM46.2779 30.7908L58.7297 39.5096L65.6126 29.6797L53.1609 20.9609L46.2779 30.7908ZM46.8116 33.6098L52.0473 31.4059L47.3915 20.3458L42.1559 22.5498L46.8116 33.6098ZM50.1961 34.0496L50.4765 28.3759L38.4911 27.7837L38.2107 33.4574L50.1961 34.0496ZM63.4001 39.8705L47.6449 28.8386L40.762 38.6684L56.5172 49.7004L63.4001 39.8705ZM79.1554 50.9025L63.4001 39.8705L56.5172 49.7004L72.2725 60.7323L79.1554 50.9025ZM78.6217 48.0834L73.3861 50.2874L78.0418 61.3474L83.2774 59.1435L78.6217 48.0834ZM75.2372 47.6437L74.9569 53.3173L86.9422 53.9095L87.2226 48.2359L75.2372 47.6437ZM65.3367 44.1359L77.7885 52.8547L84.6713 43.0248L72.2196 34.3061L65.3367 44.1359ZM75.2799 18.2637L63.7521 35.944L73.8042 42.498L85.332 24.8177L75.2799 18.2637ZM76.8642 26.4554L78.3253 27.4786L85.2088 17.6492L83.7477 16.626L76.8642 26.4554ZM86.6819 26.0054L91.4862 19.1442L81.6563 12.2613L76.8521 19.1224L86.6819 26.0054ZM90.0127 10.7878L85.8198 7.85191L78.9369 17.6817L83.1298 20.6176L90.0127 10.7878ZM50.0371 45.1632L56.5171 49.7005L63.4 39.8707L56.9201 35.3333L50.0371 45.1632ZM22.4062 95.0849L58.3935 43.6897L48.5637 36.8068L12.5764 88.202L22.4062 95.0849ZM24.2227 104.027L23.4812 91.2946L11.5015 91.9923L12.243 104.725L24.2227 104.027ZM28.7304 94.9702L16.5121 98.6281L19.9537 110.124L32.1721 106.466L28.7304 94.9702ZM61.5236 45.8815L25.5363 97.2766L35.3662 104.16L71.3535 52.7644L61.5236 45.8815ZM56.5171 49.7005L62.9971 54.2378L69.88 44.408L63.4001 39.8707L56.5171 49.7005Z" fill="#FCBA43" mask="url(#path-1-outside-1)"/>
<mask id="path-3-outside-2" maskUnits="userSpaceOnUse" x="14.4913" y="6.83089" width="75" height="101" fill="black">
<rect fill="white" x="14.4913" y="6.83089" width="75" height="101"/>
<path fill-rule="evenodd" clip-rule="evenodd" d="M82.3784 12.7668L78.1854 9.83089L73.3812 16.692L74.8424 17.7152L62.1711 34.5946L49.7194 25.8759L44.4838 28.0798L44.2034 33.7535L59.9587 44.7854L75.7139 55.8174L80.9496 53.6134L81.2299 47.9398L68.7781 39.221L80.3059 21.5407L81.767 22.5639L86.5713 15.7027L82.3784 12.7668ZM59.9586 44.7856L53.4786 40.2483L17.4913 91.6434L18.2329 104.376L30.4512 100.718L66.4385 49.3229L59.9586 44.7856Z"/>
</mask>
<path fill-rule="evenodd" clip-rule="evenodd" d="M82.3784 12.7668L78.1854 9.83089L73.3812 16.692L74.8424 17.7152L62.1711 34.5946L49.7194 25.8759L44.4838 28.0798L44.2034 33.7535L59.9587 44.7854L75.7139 55.8174L80.9496 53.6134L81.2299 47.9398L68.7781 39.221L80.3059 21.5407L81.767 22.5639L86.5713 15.7027L82.3784 12.7668ZM59.9586 44.7856L53.4786 40.2483L17.4913 91.6434L18.2329 104.376L30.4512 100.718L66.4385 49.3229L59.9586 44.7856Z" fill="white"/>
<path d="M78.1854 9.83089L79.3326 8.19258L77.6943 7.04543L76.5471 8.68373L78.1854 9.83089ZM82.3784 12.7668L83.5255 11.1285L83.5255 11.1285L82.3784 12.7668ZM73.3812 16.692L71.7429 15.5449L70.5957 17.1832L72.234 18.3304L73.3812 16.692ZM74.8424 17.7152L76.4418 18.9159L77.6829 17.2626L75.9895 16.0769L74.8424 17.7152ZM62.1711 34.5946L61.024 36.233L62.609 37.3428L63.7706 35.7954L62.1711 34.5946ZM49.7194 25.8759L50.8666 24.2376L49.9616 23.6039L48.9434 24.0325L49.7194 25.8759ZM44.4838 28.0798L43.7078 26.2365L42.5483 26.7246L42.4862 27.9811L44.4838 28.0798ZM44.2034 33.7535L42.2059 33.6548L42.1513 34.7582L43.0563 35.3918L44.2034 33.7535ZM59.9587 44.7854L61.1058 43.1471L59.9587 44.7854ZM75.7139 55.8174L74.5668 57.4557L75.4717 58.0893L76.4899 57.6607L75.7139 55.8174ZM80.9496 53.6134L81.7255 55.4568L82.885 54.9687L82.9471 53.7121L80.9496 53.6134ZM81.2299 47.9398L83.2275 48.0385L83.282 46.9351L82.3771 46.3015L81.2299 47.9398ZM68.7781 39.221L67.1028 38.1287L66.046 39.7495L67.631 40.8593L68.7781 39.221ZM80.3059 21.5407L81.4532 19.9025L79.7597 18.7165L78.6306 20.4483L80.3059 21.5407ZM81.767 22.5639L80.6198 24.2021L82.2581 25.3495L83.4053 23.711L81.767 22.5639ZM86.5713 15.7027L88.2096 16.8499L89.3567 15.2116L87.7184 14.0644L86.5713 15.7027ZM53.4786 40.2483L54.6258 38.61L52.9874 37.4628L51.8403 39.1011L53.4786 40.2483ZM59.9586 44.7856L61.1057 43.1473L61.1057 43.1473L59.9586 44.7856ZM17.4913 91.6434L15.853 90.4963L15.4543 91.0657L15.4947 91.7597L17.4913 91.6434ZM18.2329 104.376L16.2363 104.492L16.3834 107.017L18.8065 106.292L18.2329 104.376ZM30.4512 100.718L31.0249 102.634L31.6908 102.435L32.0895 101.865L30.4512 100.718ZM66.4385 49.3229L68.0768 50.4701L69.224 48.8318L67.5857 47.6846L66.4385 49.3229ZM77.0383 11.4692L81.2312 14.4051L83.5255 11.1285L79.3326 8.19258L77.0383 11.4692ZM75.0195 17.8392L79.8237 10.978L76.5471 8.68373L71.7429 15.5449L75.0195 17.8392ZM75.9895 16.0769L74.5283 15.0537L72.234 18.3304L73.6952 19.3535L75.9895 16.0769ZM63.7706 35.7954L76.4418 18.9159L73.2429 16.5145L60.5717 33.3939L63.7706 35.7954ZM48.5722 27.5142L61.024 36.233L63.3183 32.9563L50.8666 24.2376L48.5722 27.5142ZM45.2597 29.9231L50.4954 27.7192L48.9434 24.0325L43.7078 26.2365L45.2597 29.9231ZM46.201 33.8522L46.4813 28.1785L42.4862 27.9811L42.2059 33.6548L46.201 33.8522ZM61.1058 43.1471L45.3506 32.1152L43.0563 35.3918L58.8115 46.4237L61.1058 43.1471ZM76.8611 54.1791L61.1058 43.1471L58.8115 46.4237L74.5668 57.4557L76.8611 54.1791ZM80.1736 51.7701L74.938 53.9741L76.4899 57.6607L81.7255 55.4568L80.1736 51.7701ZM79.2323 47.8411L78.952 53.5147L82.9471 53.7121L83.2275 48.0385L79.2323 47.8411ZM67.631 40.8593L80.0828 49.5781L82.3771 46.3015L69.9253 37.5827L67.631 40.8593ZM78.6306 20.4483L67.1028 38.1287L70.4535 40.3134L81.9813 22.633L78.6306 20.4483ZM79.1587 23.1789L80.6198 24.2021L82.9143 20.9257L81.4532 19.9025L79.1587 23.1789ZM83.4053 23.711L88.2096 16.8499L84.933 14.5556L80.1287 21.4167L83.4053 23.711ZM87.7184 14.0644L83.5255 11.1285L81.2312 14.4051L85.4241 17.341L87.7184 14.0644ZM52.3314 41.8866L58.8114 46.4239L61.1057 43.1473L54.6258 38.61L52.3314 41.8866ZM19.1296 92.7906L55.1169 41.3954L51.8403 39.1011L15.853 90.4963L19.1296 92.7906ZM20.2295 104.26L19.4879 91.5272L15.4947 91.7597L16.2363 104.492L20.2295 104.26ZM29.8776 98.8021L17.6593 102.46L18.8065 106.292L31.0249 102.634L29.8776 98.8021ZM64.8002 48.1758L28.8129 99.571L32.0895 101.865L68.0768 50.4701L64.8002 48.1758ZM58.8114 46.4239L65.2914 50.9612L67.5857 47.6846L61.1057 43.1473L58.8114 46.4239Z" fill="#94A7C3" mask="url(#path-3-outside-2)"/>
<path d="M53.4786 40.2482L59.9586 44.7856L18.2329 104.376L17.4913 91.6434L53.4786 40.2482Z" fill="#EEF7F9"/>
<path d="M49.7194 25.8758L65.4747 36.9078L59.9587 44.7854L44.2034 33.7535L44.4838 28.0798L49.7194 25.8758Z" fill="#F8CF64"/>
<path d="M74.8424 17.7151L77.6377 19.6724L65.5382 36.9523L62.1711 34.5947L74.8424 17.7151Z" fill="#666867"/>
<path d="M78.1855 9.83087L82.3784 12.7668L77.5742 19.628L73.3812 16.692L78.1855 9.83087Z" fill="#F8CF64"/>
<path d="M66.4386 49.3229L59.9586 44.7856L18.2329 104.376L30.4513 100.718L66.4386 49.3229Z" fill="#ADD3E0"/>
<path d="M81.2299 47.9397L65.4747 36.9078L59.9587 44.7854L75.714 55.8174L80.9496 53.6134L81.2299 47.9397Z" fill="#EA9649"/>
<path d="M80.306 21.5407L77.5107 19.5834L65.4111 36.8634L68.7782 39.221L80.306 21.5407Z" fill="#303030"/>
<path d="M86.5713 15.7027L82.3784 12.7668L77.5741 19.628L81.7671 22.5639L86.5713 15.7027Z" fill="#EA9649"/>
</svg>
